  0
SECTION
  2
HEADER
  9
$ACADVER
  1
AC1015
  9
$ACADMAINTVER
 70
    18
  9
$DWGCODEPAGE
  3
ANSI_1252
  9
$INSBASE
 10
0.0
 20
0.0
 30
0.0
  9
$EXTMIN
 10
0.4885063264673731
 20
0.4305880683833447
 30
-0.00000001
  9
$EXTMAX
 10
11.48568762822617
 20
7.7786009035211
 30
0.00000001
  9
$LIMMIN
 10
0.0173425196850394
 20
-0.0141666666666654
  9
$LIMMAX
 10
11.71025590551181
 20
8.253549868766404
  9
$ORTHOMODE
 70
     0
  9
$REGENMODE
 70
     1
  9
$FILLMODE
 70
     1
  9
$QTEXTMODE
 70
     0
  9
$MIRRTEXT
 70
     0
  9
$LTSCALE
 40
1.0
  9
$ATTMODE
 70
     1
  9
$TEXTSIZE
 40
0.1181102362204724
  9
$TRACEWID
 40
0.05
  9
$TEXTSTYLE
  7
Standard
  9
$CLAYER
  8
0
  9
$CELTYPE
  6
ByLayer
  9
$CECOLOR
 62
     7
  9
$CELTSCALE
 40
1.0
  9
$DISPSILH
 70
     0
  9
$DIMSCALE
 40
1.0
  9
$DIMASZ
 40
0.18
  9
$DIMEXO
 40
0.0625
  9
$DIMDLI
 40
0.38
  9
$DIMRND
 40
0.0
  9
$DIMDLE
 40
0.0
  9
$DIMEXE
 40
0.18
  9
$DIMTP
 40
0.0
  9
$DIMTM
 40
0.0
  9
$DIMTXT
 40
0.125
  9
$DIMCEN
 40
0.09
  9
$DIMTSZ
 40
0.0
  9
$DIMTOL
 70
     0
  9
$DIMLIM
 70
     0
  9
$DIMTIH
 70
     1
  9
$DIMTOH
 70
     1
  9
$DIMSE1
 70
     0
  9
$DIMSE2
 70
     0
  9
$DIMTAD
 70
     0
  9
$DIMZIN
 70
     0
  9
$DIMBLK
  1

  9
$DIMASO
 70
     1
  9
$DIMSHO
 70
     1
  9
$DIMPOST
  1

  9
$DIMAPOST
  1

  9
$DIMALT
 70
     0
  9
$DIMALTD
 70
     2
  9
$DIMALTF
 40
25.4
  9
$DIMLFAC
 40
1.0
  9
$DIMTOFL
 70
     0
  9
$DIMTVP
 40
0.0
  9
$DIMTIX
 70
     0
  9
$DIMSOXD
 70
     0
  9
$DIMSAH
 70
     0
  9
$DIMBLK1
  1

  9
$DIMBLK2
  1

  9
$DIMSTYLE
  2
Standard
  9
$DIMCLRD
 70
     0
  9
$DIMCLRE
 70
     0
  9
$DIMCLRT
 70
     0
  9
$DIMTFAC
 40
1.0
  9
$DIMGAP
 40
0.09
  9
$DIMJUST
 70
     0
  9
$DIMSD1
 70
     0
  9
$DIMSD2
 70
     0
  9
$DIMTOLJ
 70
     1
  9
$DIMTZIN
 70
     0
  9
$DIMALTZ
 70
     0
  9
$DIMALTTZ
 70
     0
  9
$DIMUPT
 70
     0
  9
$DIMDEC
 70
     3
  9
$DIMTDEC
 70
     4
  9
$DIMALTU
 70
     2
  9
$DIMALTTD
 70
     2
  9
$DIMTXSTY
  7
Standard
  9
$DIMAUNIT
 70
     1
  9
$DIMADEC
 70
     0
  9
$DIMALTRND
 40
0.0
  9
$DIMAZIN
 70
     0
  9
$DIMDSEP
 70
    46
  9
$DIMATFIT
 70
     3
  9
$DIMFRAC
 70
     0
  9
$DIMLDRBLK
  1

  9
$DIMLUNIT
 70
     4
  9
$DIMLWD
 70
    -2
  9
$DIMLWE
 70
    -2
  9
$DIMTMOVE
 70
     0
  9
$LUNITS
 70
     2
  9
$LUPREC
 70
     3
  9
$SKETCHINC
 40
0.1
  9
$FILLETRAD
 40
0.039
  9
$AUNITS
 70
     0
  9
$AUPREC
 70
     2
  9
$MENU
  1
.
  9
$ELEVATION
 40
0.0
  9
$PELEVATION
 40
0.0
  9
$THICKNESS
 40
0.0
  9
$LIMCHECK
 70
     0
  9
$CHAMFERA
 40
0.25
  9
$CHAMFERB
 40
0.25
  9
$CHAMFERC
 40
0.0
  9
$CHAMFERD
 40
0.0
  9
$SKPOLY
 70
     0
  9
$TDCREATE
 40
2458362.467913090
  9
$TDUCREATE
 40
2458362.426246424
  9
$TDUPDATE
 40
2458362.467913090
  9
$TDUUPDATE
 40
2458362.426246424
  9
$TDINDWG
 40
0.0000343981
  9
$TDUSRTIMER
 40
0.0000343981
  9
$USRTIMER
 70
     1
  9
$ANGBASE
 50
0.0
  9
$ANGDIR
 70
     0
  9
$PDMODE
 70
     0
  9
$PDSIZE
 40
0.0
  9
$PLINEWID
 40
0.0
  9
$SPLFRAME
 70
     0
  9
$SPLINETYPE
 70
     6
  9
$SPLINESEGS
 70
     8
  9
$HANDSEED
  5
17A
  9
$SURFTAB1
 70
     6
  9
$SURFTAB2
 70
     6
  9
$SURFTYPE
 70
     6
  9
$SURFU
 70
     6
  9
$SURFV
 70
     6
  9
$UCSBASE
  2

  9
$UCSNAME
  2

  9
$UCSORG
 10
0.0
 20
0.0
 30
0.0
  9
$UCSXDIR
 10
1.0
 20
0.0
 30
0.0
  9
$UCSYDIR
 10
0.0
 20
1.0
 30
0.0
  9
$UCSORTHOREF
  2

  9
$UCSORTHOVIEW
 70
     0
  9
$UCSORGTOP
 10
0.0
 20
0.0
 30
0.0
  9
$UCSORGBOTTOM
 10
0.0
 20
0.0
 30
0.0
  9
$UCSORGLEFT
 10
0.0
 20
0.0
 30
0.0
  9
$UCSORGRIGHT
 10
0.0
 20
0.0
 30
0.0
  9
$UCSORGFRONT
 10
0.0
 20
0.0
 30
0.0
  9
$UCSORGBACK
 10
0.0
 20
0.0
 30
0.0
  9
$PUCSBASE
  2

  9
$PUCSNAME
  2

  9
$PUCSORG
 10
0.0
 20
0.0
 30
0.0
  9
$PUCSXDIR
 10
1.0
 20
0.0
 30
0.0
  9
$PUCSYDIR
 10
0.0
 20
1.0
 30
0.0
  9
$PUCSORTHOREF
  2

  9
$PUCSORTHOVIEW
 70
     0
  9
$PUCSORGTOP
 10
0.0
 20
0.0
 30
0.0
  9
$PUCSORGBOTTOM
 10
0.0
 20
0.0
 30
0.0
  9
$PUCSORGLEFT
 10
0.0
 20
0.0
 30
0.0
  9
$PUCSORGRIGHT
 10
0.0
 20
0.0
 30
0.0
  9
$PUCSORGFRONT
 10
0.0
 20
0.0
 30
0.0
  9
$PUCSORGBACK
 10
0.0
 20
0.0
 30
0.0
  9
$USERI1
 70
     0
  9
$USERI2
 70
     0
  9
$USERI3
 70
     0
  9
$USERI4
 70
     0
  9
$USERI5
 70
     0
  9
$USERR1
 40
0.0
  9
$USERR2
 40
0.0
  9
$USERR3
 40
0.0
  9
$USERR4
 40
0.0
  9
$USERR5
 40
0.0
  9
$WORLDVIEW
 70
     1
  9
$SHADEDGE
 70
     3
  9
$SHADEDIF
 70
    70
  9
$TILEMODE
 70
     1
  9
$MAXACTVP
 70
    64
  9
$PINSBASE
 10
0.0
 20
0.0
 30
0.0
  9
$PLIMCHECK
 70
     0
  9
$PEXTMIN
 10
1.000000000000000E+20
 20
1.000000000000000E+20
 30
1.000000000000000E+20
  9
$PEXTMAX
 10
-1.000000000000000E+20
 20
-1.000000000000000E+20
 30
-1.000000000000000E+20
  9
$PLIMMIN
 10
0.0
 20
0.0
  9
$PLIMMAX
 10
12.0
 20
9.0
  9
$UNITMODE
 70
     0
  9
$VISRETAIN
 70
     1
  9
$PLINEGEN
 70
     0
  9
$PSLTSCALE
 70
     1
  9
$TREEDEPTH
 70
  3020
  9
$CMLSTYLE
  2
Standard
  9
$CMLJUST
 70
     0
  9
$CMLSCALE
 40
1.0
  9
$PROXYGRAPHICS
 70
     1
  9
$MEASUREMENT
 70
     0
  9
$CELWEIGHT
370
    -1
  9
$ENDCAPS
280
     0
  9
$JOINSTYLE
280
     0
  9
$LWDISPLAY
290
     0
  9
$INSUNITS
 70
     0
  9
$HYPERLINKBASE
  1

  9
$STYLESHEET
  1

  9
$XEDIT
290
     1
  9
$CEPSNTYPE
380
     0
  9
$PSTYLEMODE
290
     1
  9
$FINGERPRINTGUID
  2
{2FF7F3DA-6B5A-4FAD-AA4F-7D0074C05DC5}
  9
$VERSIONGUID
  2
{A8647EBC-72AC-4643-BD37-C3E9F026F108}
  9
$EXTNAMES
290
     1
  9
$PSVPSCALE
 40
0.0
  9
$OLESTARTUP
290
     0
  0
ENDSEC
  0
SECTION
  2
CLASSES
  0
CLASS
  1
ACDBDICTIONARYWDFLT
  2
AcDbDictionaryWithDefault
  3
ObjectDBX Classes
 90
        0
280
     0
281
     0
  0
CLASS
  1
MATERIAL
  2
AcDbMaterial
  3
ObjectDBX Classes
 90
     1153
280
     0
281
     0
  0
CLASS
  1
VISUALSTYLE
  2
AcDbVisualStyle
  3
ObjectDBX Classes
 90
     4095
280
     0
281
     0
  0
CLASS
  1
SCALE
  2
AcDbScale
  3
ObjectDBX Classes
 90
     1153
280
     0
281
     0
  0
CLASS
  1
TABLESTYLE
  2
AcDbTableStyle
  3
ObjectDBX Classes
 90
     4095
280
     0
281
     0
  0
CLASS
  1
MLEADERSTYLE
  2
AcDbMLeaderStyle
  3
ACDB_MLEADERSTYLE_CLASS
 90
     4095
280
     0
281
     0
  0
CLASS
  1
DICTIONARYVAR
  2
AcDbDictionaryVar
  3
ObjectDBX Classes
 90
        0
280
     0
281
     0
  0
CLASS
  1
CELLSTYLEMAP
  2
AcDbCellStyleMap
  3
ObjectDBX Classes
 90
     1152
280
     0
281
     0
  0
CLASS
  1
ACDBPLACEHOLDER
  2
AcDbPlaceHolder
  3
ObjectDBX Classes
 90
        0
280
     0
281
     0
  0
CLASS
  1
LAYOUT
  2
AcDbLayout
  3
ObjectDBX Classes
 90
        0
280
     0
281
     0
  0
ENDSEC
  0
SECTION
  2
TABLES
  0
TABLE
  2
VPORT
  5
8
330
0
100
AcDbSymbolTable
 70
     1
  0
VPORT
  5
5F
330
8
100
AcDbSymbolTableRecord
100
AcDbViewportTableRecord
  2
*Active
 70
     0
 10
0.0
 20
0.0
 11
1.0
 21
1.0
 12
5.872470472440944
 22
4.112608267716536
 13
0.0
 23
0.0
 14
1.0
 24
1.0
 15
0.0
 25
0.0
 16
0.0
 26
0.0
 36
1.0
 17
0.0
 27
0.0
 37
0.0
 40
8.253549868766404
 41
1.418814460651226
 42
50.0
 43
0.0
 44
0.0
 50
0.0
 51
0.0
 71
     0
 72
   100
 73
     1
 74
     1
 75
     0
 76
     0
 77
     0
 78
     0
281
     0
 65
     1
110
0.0
120
0.0
130
0.0
111
1.0
121
0.0
131
0.0
112
0.0
122
1.0
132
0.0
 79
     0
146
0.0
  0
ENDTAB
  0
TABLE
  2
LTYPE
  5
5
330
0
100
AcDbSymbolTable
 70
    40
  0
LTYPE
  5
63
330
5
100
AcDbSymbolTableRecord
100
AcDbLinetypeTableRecord
  2
ByBlock
 70
     0
  3

 72
    65
 73
     0
 40
0.0
  0
LTYPE
  5
64
330
5
100
AcDbSymbolTableRecord
100
AcDbLinetypeTableRecord
  2
ByLayer
 70
     0
  3

 72
    65
 73
     0
 40
0.0
  0
LTYPE
  5
65
330
5
100
AcDbSymbolTableRecord
100
AcDbLinetypeTableRecord
  2
Continuous
 70
     0
  3
Solid line
 72
    65
 73
     0
 40
0.0
  0
LTYPE
  5
7D
330
5
100
AcDbSymbolTableRecord
100
AcDbLinetypeTableRecord
  2
HIDDEN
 70
     0
  3
_ _ _ _ _ _ _ _ _ _ _ _ _ _ 
 72
    65
 73
     2
 40
0.375
 49
0.25
 74
     0
 49
-0.125
 74
     0
  0
LTYPE
  5
7E
330
5
100
AcDbSymbolTableRecord
100
AcDbLinetypeTableRecord
  2
DASHED
 70
     0
  3
__ __ __ __ __ __ __ __ __ 
 72
    65
 73
     2
 40
0.75
 49
0.5
 74
     0
 49
-0.25
 74
     0
  0
LTYPE
  5
7F
330
5
100
AcDbSymbolTableRecord
100
AcDbLinetypeTableRecord
  2
CENTER
 70
     0
  3
____ _ ____ _ ____ _ ____ _ 
 72
    65
 73
     4
 40
2.0
 49
1.25
 74
     0
 49
-0.25
 74
     0
 49
0.25
 74
     0
 49
-0.25
 74
     0
  0
LTYPE
  5
80
330
5
100
AcDbSymbolTableRecord
100
AcDbLinetypeTableRecord
  2
PHANTOM
 70
     0
  3
_____ _ _ _____ _ _ _____ _ _ 
 72
    65
 73
     6
 40
2.5
 49
1.25
 74
     0
 49
-0.25
 74
     0
 49
0.25
 74
     0
 49
-0.25
 74
     0
 49
0.25
 74
     0
 49
-0.25
 74
     0
  0
LTYPE
  5
81
330
5
100
AcDbSymbolTableRecord
100
AcDbLinetypeTableRecord
  2
DOT
 70
     0
  3
...........................
 72
    65
 73
     2
 40
0.25
 49
0.0
 74
     0
 49
-0.25
 74
     0
  0
LTYPE
  5
82
330
5
100
AcDbSymbolTableRecord
100
AcDbLinetypeTableRecord
  2
DASHDOT
 70
     0
  3
__ . __ . __ . __ . __ . __ . 
 72
    65
 73
     4
 40
1.0
 49
0.5
 74
     0
 49
-0.25
 74
     0
 49
0.0
 74
     0
 49
-0.25
 74
     0
  0
LTYPE
  5
83
330
5
100
AcDbSymbolTableRecord
100
AcDbLinetypeTableRecord
  2
DIVIDE
 70
     0
  3
__ . . __ . . __ . . __ . . 
 72
    65
 73
     6
 40
1.25
 49
0.5
 74
     0
 49
-0.25
 74
     0
 49
0.0
 74
     0
 49
-0.25
 74
     0
 49
0.0
 74
     0
 49
-0.25
 74
     0
  0
LTYPE
  5
84
330
5
100
AcDbSymbolTableRecord
100
AcDbLinetypeTableRecord
  2
BORDER
 70
     0
  3
__ __ . __ __ . __ __ . __ __ .
 72
    65
 73
     6
 40
1.75
 49
0.5
 74
     0
 49
-0.25
 74
     0
 49
0.5
 74
     0
 49
-0.25
 74
     0
 49
0.0
 74
     0
 49
-0.25
 74
     0
  0
LTYPE
  5
85
330
5
100
AcDbSymbolTableRecord
100
AcDbLinetypeTableRecord
  2
BORDER2
 70
     0
  3
Border (.5x) __.__.__.__.__.__.
 72
    65
 73
     6
 40
0.875
 49
0.25
 74
     0
 49
-0.125
 74
     0
 49
0.25
 74
     0
 49
-0.125
 74
     0
 49
0.0
 74
     0
 49
-0.125
 74
     0
  0
LTYPE
  5
86
330
5
100
AcDbSymbolTableRecord
100
AcDbLinetypeTableRecord
  2
BORDERX2
 70
     0
  3
Border (2x) ____  ____  .  ____
 72
    65
 73
     6
 40
3.5
 49
1.0
 74
     0
 49
-0.5
 74
     0
 49
1.0
 74
     0
 49
-0.5
 74
     0
 49
0.0
 74
     0
 49
-0.5
 74
     0
  0
LTYPE
  5
87
330
5
100
AcDbSymbolTableRecord
100
AcDbLinetypeTableRecord
  2
CENTER2
 70
     0
  3
Center (.5x) ___ _ ___ _ ___ _ 
 72
    65
 73
     4
 40
1.125
 49
0.7500000000000001
 74
     0
 49
-0.125
 74
     0
 49
0.125
 74
     0
 49
-0.125
 74
     0
  0
LTYPE
  5
88
330
5
100
AcDbSymbolTableRecord
100
AcDbLinetypeTableRecord
  2
CENTERX2
 70
     0
  3
Center (2x) ________  __  _____
 72
    65
 73
     4
 40
4.0
 49
2.5
 74
     0
 49
-0.5
 74
     0
 49
0.5
 74
     0
 49
-0.5
 74
     0
  0
LTYPE
  5
89
330
5
100
AcDbSymbolTableRecord
100
AcDbLinetypeTableRecord
  2
DASHDOT2
 70
     0
  3
Dash dot (.5x) _._._._._._._._.
 72
    65
 73
     4
 40
0.5
 49
0.25
 74
     0
 49
-0.125
 74
     0
 49
0.0
 74
     0
 49
-0.125
 74
     0
  0
LTYPE
  5
8A
330
5
100
AcDbSymbolTableRecord
100
AcDbLinetypeTableRecord
  2
DASHDOTX2
 70
     0
  3
Dash dot (2x) ____  .  ____  . 
 72
    65
 73
     4
 40
2.0
 49
1.0
 74
     0
 49
-0.5
 74
     0
 49
0.0
 74
     0
 49
-0.5
 74
     0
  0
LTYPE
  5
8B
330
5
100
AcDbSymbolTableRecord
100
AcDbLinetypeTableRecord
  2
DASHED2
 70
     0
  3
Dashed (.5x) _ _ _ _ _ _ _ _ _ 
 72
    65
 73
     2
 40
0.375
 49
0.25
 74
     0
 49
-0.125
 74
     0
  0
LTYPE
  5
8C
330
5
100
AcDbSymbolTableRecord
100
AcDbLinetypeTableRecord
  2
DASHEDX2
 70
     0
  3
Dashed (2x) ____  ____  ____  _
 72
    65
 73
     2
 40
1.5
 49
1.0
 74
     0
 49
-0.5
 74
     0
  0
LTYPE
  5
8D
330
5
100
AcDbSymbolTableRecord
100
AcDbLinetypeTableRecord
  2
DIVIDE2
 70
     0
  3
Divide (.5x) __..__..__..__..__
 72
    65
 73
     6
 40
0.625
 49
0.25
 74
     0
 49
-0.125
 74
     0
 49
0.0
 74
     0
 49
-0.125
 74
     0
 49
0.0
 74
     0
 49
-0.125
 74
     0
  0
LTYPE
  5
8E
330
5
100
AcDbSymbolTableRecord
100
AcDbLinetypeTableRecord
  2
DIVIDEX2
 70
     0
  3
Divide (2x) ________  .  .  ___
 72
    65
 73
     6
 40
2.5
 49
1.0
 74
     0
 49
-0.5
 74
     0
 49
0.0
 74
     0
 49
-0.5
 74
     0
 49
0.0
 74
     0
 49
-0.5
 74
     0
  0
LTYPE
  5
8F
330
5
100
AcDbSymbolTableRecord
100
AcDbLinetypeTableRecord
  2
DOT2
 70
     0
  3
Dot (.5x) .....................
 72
    65
 73
     2
 40
0.125
 49
0.0
 74
     0
 49
-0.125
 74
     0
  0
LTYPE
  5
90
330
5
100
AcDbSymbolTableRecord
100
AcDbLinetypeTableRecord
  2
DOTX2
 70
     0
  3
Dot (2x) .  .  .  .  .  .  .  .
 72
    65
 73
     2
 40
0.5
 49
0.0
 74
     0
 49
-0.5
 74
     0
  0
LTYPE
  5
91
330
5
100
AcDbSymbolTableRecord
100
AcDbLinetypeTableRecord
  2
HIDDEN2
 70
     0
  3
Hidden (.5x) _ _ _ _ _ _ _ _ _ 
 72
    65
 73
     2
 40
0.1875
 49
0.125
 74
     0
 49
-0.0625
 74
     0
  0
LTYPE
  5
92
330
5
100
AcDbSymbolTableRecord
100
AcDbLinetypeTableRecord
  2
HIDDENX2
 70
     0
  3
Hidden (2x) ____ ____ ____ ____
 72
    65
 73
     2
 40
0.75
 49
0.5
 74
     0
 49
-0.25
 74
     0
  0
LTYPE
  5
93
330
5
100
AcDbSymbolTableRecord
100
AcDbLinetypeTableRecord
  2
PHANTOM2
 70
     0
  3
Phantom (.5x) ___ _ _ ___ _ _ _
 72
    65
 73
     6
 40
1.25
 49
0.6250000000000001
 74
     0
 49
-0.125
 74
     0
 49
0.125
 74
     0
 49
-0.125
 74
     0
 49
0.125
 74
     0
 49
-0.125
 74
     0
  0
LTYPE
  5
94
330
5
100
AcDbSymbolTableRecord
100
AcDbLinetypeTableRecord
  2
PHANTOMX2
 70
     0
  3
Phantom (2x) ____________    __
 72
    65
 73
     6
 40
5.0
 49
2.5
 74
     0
 49
-0.5
 74
     0
 49
0.5
 74
     0
 49
-0.5
 74
     0
 49
0.5
 74
     0
 49
-0.5
 74
     0
  0
LTYPE
  5
95
330
5
100
AcDbSymbolTableRecord
100
AcDbLinetypeTableRecord
  2
DOTS
 70
     0
  3
Dots - - - - - - - - - - - - - 
 72
    65
 73
     2
 40
0.1
 49
0.05
 74
     0
 49
-0.05
 74
     0
  0
LTYPE
  5
96
330
5
100
AcDbSymbolTableRecord
100
AcDbLinetypeTableRecord
  2
ACAD_ISO02W100
 70
     0
  3
__ __ __ __ __ __ __ __ __ __ _
 72
    65
 73
     2
 40
15.0
 49
12.0
 74
     0
 49
-3.0
 74
     0
  0
LTYPE
  5
97
330
5
100
AcDbSymbolTableRecord
100
AcDbLinetypeTableRecord
  2
ACAD_ISO03W100
 70
     0
  3
__    __    __    __    __    _
 72
    65
 73
     2
 40
30.0
 49
12.0
 74
     0
 49
-18.0
 74
     0
  0
LTYPE
  5
98
330
5
100
AcDbSymbolTableRecord
100
AcDbLinetypeTableRecord
  2
ACAD_ISO04W100
 70
     0
  3
____ . ____ . ____ . ____ . ___
 72
    65
 73
     4
 40
30.5
 49
24.0
 74
     0
 49
-3.0
 74
     0
 49
0.5
 74
     0
 49
-3.0
 74
     0
  0
LTYPE
  5
99
330
5
100
AcDbSymbolTableRecord
100
AcDbLinetypeTableRecord
  2
ACAD_ISO05W100
 70
     0
  3
____ .. ____ .. ____ .. ____ ..
 72
    65
 73
     6
 40
34.0
 49
24.0
 74
     0
 49
-3.0
 74
     0
 49
0.5
 74
     0
 49
-3.0
 74
     0
 49
0.5
 74
     0
 49
-3.0
 74
     0
  0
LTYPE
  5
9A
330
5
100
AcDbSymbolTableRecord
100
AcDbLinetypeTableRecord
  2
ACAD_ISO06W100
 70
     0
  3
____ ... ____ ... ____ ... ____
 72
    65
 73
     6
 40
34.0
 49
24.0
 74
     0
 49
-3.0
 74
     0
 49
0.5
 74
     0
 49
-3.0
 74
     0
 49
0.5
 74
     0
 49
-3.0
 74
     0
  0
LTYPE
  5
9B
330
5
100
AcDbSymbolTableRecord
100
AcDbLinetypeTableRecord
  2
ACAD_ISO07W100
 70
     0
  3
. . . . . . . . . . . . . . . .
 72
    65
 73
     2
 40
3.5
 49
0.5
 74
     0
 49
-3.0
 74
     0
  0
LTYPE
  5
9C
330
5
100
AcDbSymbolTableRecord
100
AcDbLinetypeTableRecord
  2
ACAD_ISO08W100
 70
     0
  3
____ __ ____ __ ____ __ ____ __
 72
    65
 73
     4
 40
36.0
 49
24.0
 74
     0
 49
-3.0
 74
     0
 49
6.0
 74
     0
 49
-3.0
 74
     0
  0
LTYPE
  5
9D
330
5
100
AcDbSymbolTableRecord
100
AcDbLinetypeTableRecord
  2
ACAD_ISO09W100
 70
     0
  3
____ __ __ ____ __ __ ____ __ _
 72
    65
 73
     6
 40
45.0
 49
24.0
 74
     0
 49
-3.0
 74
     0
 49
6.0
 74
     0
 49
-3.0
 74
     0
 49
6.0
 74
     0
 49
-3.0
 74
     0
  0
LTYPE
  5
9E
330
5
100
AcDbSymbolTableRecord
100
AcDbLinetypeTableRecord
  2
ACAD_ISO10W100
 70
     0
  3
__ . __ . __ . __ . __ . __ . _
 72
    65
 73
     4
 40
18.5
 49
12.0
 74
     0
 49
-3.0
 74
     0
 49
0.5
 74
     0
 49
-3.0
 74
     0
  0
LTYPE
  5
9F
330
5
100
AcDbSymbolTableRecord
100
AcDbLinetypeTableRecord
  2
ACAD_ISO11W100
 70
     0
  3
__ __ . __ __ . __ __ . __ __ .
 72
    65
 73
     6
 40
33.5
 49
12.0
 74
     0
 49
-3.0
 74
     0
 49
12.0
 74
     0
 49
-3.0
 74
     0
 49
0.5
 74
     0
 49
-3.0
 74
     0
  0
LTYPE
  5
A0
330
5
100
AcDbSymbolTableRecord
100
AcDbLinetypeTableRecord
  2
ACAD_ISO12W100
 70
     0
  3
__ . . __ . . __ . . __ . . __ 
 72
    65
 73
     6
 40
22.0
 49
12.0
 74
     0
 49
-3.0
 74
     0
 49
0.5
 74
     0
 49
-3.0
 74
     0
 49
0.5
 74
     0
 49
-3.0
 74
     0
  0
LTYPE
  5
A1
330
5
100
AcDbSymbolTableRecord
100
AcDbLinetypeTableRecord
  2
ACAD_ISO13W100
 70
     0
  3
__ __ . . __ __ . . __ __ . . _
 72
    65
 73
     6
 40
33.5
 49
12.0
 74
     0
 49
-3.0
 74
     0
 49
12.0
 74
     0
 49
-3.0
 74
     0
 49
0.5
 74
     0
 49
-3.0
 74
     0
  0
LTYPE
  5
A2
330
5
100
AcDbSymbolTableRecord
100
AcDbLinetypeTableRecord
  2
ACAD_ISO14W100
 70
     0
  3
__ . . . __ . . . __ . . . __ .
 72
    65
 73
     6
 40
22.0
 49
12.0
 74
     0
 49
-3.0
 74
     0
 49
0.5
 74
     0
 49
-3.0
 74
     0
 49
0.5
 74
     0
 49
-3.0
 74
     0
  0
LTYPE
  5
A3
330
5
100
AcDbSymbolTableRecord
100
AcDbLinetypeTableRecord
  2
ACAD_ISO15W100
 70
     0
  3
__ __ . . . __ __ . . . __ __ .
 72
    65
 73
     6
 40
33.5
 49
12.0
 74
     0
 49
-3.0
 74
     0
 49
12.0
 74
     0
 49
-3.0
 74
     0
 49
0.5
 74
     0
 49
-3.0
 74
     0
  0
ENDTAB
  0
TABLE
  2
LAYER
  5
2
330
0
100
AcDbSymbolTable
 70
     3
  0
LAYER
  5
5C
330
2
100
AcDbSymbolTableRecord
100
AcDbLayerTableRecord
  2
0
 70
     0
 62
     7
  6
Continuous
370
    -3
390
F
  0
LAYER
  5
A4
330
2
100
AcDbSymbolTableRecord
100
AcDbLayerTableRecord
  2
1
 70
     0
 62
     7
  6
Continuous
370
    -3
390
F
  0
LAYER
  5
A5
330
2
100
AcDbSymbolTableRecord
100
AcDbLayerTableRecord
  2
TITLE_BLOCK
 70
     0
 62
     7
  6
Continuous
370
    -3
390
F
  0
ENDTAB
  0
TABLE
  2
STYLE
  5
3
330
0
100
AcDbSymbolTable
 70
     6
  0
STYLE
  5
5D
330
3
100
AcDbSymbolTableRecord
100
AcDbTextStyleTableRecord
  2
Standard
 70
     0
 40
0.0
 41
1.0
 50
0.0
 71
     0
 42
0.1181102362204724
  3
txt
  4

  0
STYLE
  5
62
330
3
100
AcDbSymbolTableRecord
100
AcDbTextStyleTableRecord
  2
Annotative
 70
     0
 40
0.0
 41
1.0
 50
0.0
 71
     0
 42
0.2
  3
txt
  4

1001
AcadAnnotative
1000
AnnotativeData
1002
{
1070
     1
1070
     1
1002
}
  0
STYLE
  5
A6
330
3
100
AcDbSymbolTableRecord
100
AcDbTextStyleTableRecord
  2
ITALIC
 70
     0
 40
0.0
 41
1.0
 50
0.0
 71
     0
 42
0.1181102362204724
  3
ITALIC
  4

  0
STYLE
  5
A7
330
3
100
AcDbSymbolTableRecord
100
AcDbTextStyleTableRecord
  2
SIMPLEX
 70
     0
 40
0.0
 41
1.0
 50
0.0
 71
     0
 42
0.1181102362204724
  3
SIMPLEX
  4

  0
STYLE
  5
A8
330
3
100
AcDbSymbolTableRecord
100
AcDbTextStyleTableRecord
  2
COMPLEX
 70
     0
 40
0.0
 41
1.0
 50
0.0
 71
     0
 42
0.1181102362204724
  3
COMPLEX
  4

  0
STYLE
  5
B6
330
3
100
AcDbSymbolTableRecord
100
AcDbTextStyleTableRecord
  2
ARIAL
 70
     0
 40
0.0
 41
1.0
 50
0.0
 71
     0
 42
0.1181102362204724
  3
arial.ttf
  4

1001
ACAD
1000
Arial
1071
        0
  0
ENDTAB
  0
TABLE
  2
VIEW
  5
6
330
0
100
AcDbSymbolTable
 70
     0
  0
ENDTAB
  0
TABLE
  2
UCS
  5
7
330
0
100
AcDbSymbolTable
 70
     0
  0
ENDTAB
  0
TABLE
  2
APPID
  5
9
330
0
100
AcDbSymbolTable
 70
     3
  0
APPID
  5
5E
330
9
100
AcDbSymbolTableRecord
100
AcDbRegAppTableRecord
  2
ACAD
 70
     0
  0
APPID
  5
66
330
9
100
AcDbSymbolTableRecord
100
AcDbRegAppTableRecord
  2
AcadAnnotative
 70
     0
  0
APPID
  5
70
330
9
100
AcDbSymbolTableRecord
100
AcDbRegAppTableRecord
  2
ACAD_MLEADERVER
 70
     0
  0
ENDTAB
  0
TABLE
  2
DIMSTYLE
  5
A
330
0
100
AcDbSymbolTable
 70
     2
100
AcDbDimStyleTable
 71
     0
  0
DIMSTYLE
105
60
330
A
100
AcDbSymbolTableRecord
100
AcDbDimStyleTableRecord
  2
Standard
 70
     0
340
5D
  0
DIMSTYLE
105
61
330
A
100
AcDbSymbolTableRecord
100
AcDbDimStyleTableRecord
  2
Annotative
 70
     0
340
5D
1001
AcadAnnotative
1000
AnnotativeData
1002
{
1070
     1
1070
     1
1002
}
  0
ENDTAB
  0
TABLE
  2
BLOCK_RECORD
  5
1
330
0
100
AcDbSymbolTable
 70
     2
  0
BLOCK_RECORD
  5
75
330
1
100
AcDbSymbolTableRecord
100
AcDbBlockTableRecord
  2
*Model_Space
340
78
  0
BLOCK_RECORD
  5
71
330
1
100
AcDbSymbolTableRecord
100
AcDbBlockTableRecord
  2
*Paper_Space
340
74
  0
BLOCK_RECORD
  5
79
330
1
100
AcDbSymbolTableRecord
100
AcDbBlockTableRecord
  2
*Paper_Space0
340
7C
  0
BLOCK_RECORD
  5
104
330
1
100
AcDbSymbolTableRecord
100
AcDbBlockTableRecord
  2
LONGARROW
340
0
102
{BLKREFS
331
109
331
10A
331
10F
331
110
331
115
331
116
331
11B
331
11C
331
122
331
123
331
129
331
12A
331
12F
331
130
331
135
331
136
331
13B
331
13C
331
142
331
143
331
149
331
14A
331
150
331
151
331
157
331
158
331
15C
331
15D
102
}
  0
ENDTAB
  0
ENDSEC
  0
SECTION
  2
BLOCKS
  0
BLOCK
  5
76
330
75
100
AcDbEntity
  8
0
100
AcDbBlockBegin
  2
*Model_Space
 70
     0
 10
0.0
 20
0.0
 30
0.0
  3
*Model_Space
  1

  0
ENDBLK
  5
77
330
75
100
AcDbEntity
  8
0
100
AcDbBlockEnd
  0
BLOCK
  5
72
330
71
100
AcDbEntity
 67
     1
  8
0
100
AcDbBlockBegin
  2
*Paper_Space
 70
     0
 10
0.0
 20
0.0
 30
0.0
  3
*Paper_Space
  1

  0
ENDBLK
  5
73
330
71
100
AcDbEntity
 67
     1
  8
0
100
AcDbBlockEnd
  0
BLOCK
  5
7A
330
79
100
AcDbEntity
 67
     1
  8
0
100
AcDbBlockBegin
  2
*Paper_Space0
 70
     0
 10
0.0
 20
0.0
 30
0.0
  3
*Paper_Space0
  1

  0
ENDBLK
  5
7B
330
79
100
AcDbEntity
 67
     1
  8
0
100
AcDbBlockEnd
  0
BLOCK
  5
107
330
104
100
AcDbEntity
  8
0
 62
     7
100
AcDbBlockBegin
  2
LONGARROW
 70
     0
 10
0.0
 20
0.0
 30
0.0
  3
LONGARROW
  1

  0
LWPOLYLINE
  5
105
102
{ACAD_REACTORS
330
106
102
}
330
104
100
AcDbEntity
  8
1
  6
Continuous
 62
     0
100
AcDbPolyline
 90
        3
 70
     1
 43
0.0
 10
0.0
 20
0.0
 10
2.0
 20
-0.25
 10
2.0
 20
0.25
  0
HATCH
  5
106
330
104
100
AcDbEntity
  8
1
  6
Continuous
 62
     0
100
AcDbHatch
 10
0.0
 20
0.0
 30
0.0
210
0.0
220
0.0
230
1.0
  2
SOLID
 70
     1
 71
     1
 91
        1
 92
        1
 93
        3
 72
     1
 10
0.0
 20
0.0
 11
2.0
 21
-0.25
 72
     1
 10
2.0
 20
-0.25
 11
2.0
 21
0.25
 72
     1
 10
2.0
 20
0.25
 11
0.0
 21
0.0
 97
        1
330
105
 75
     0
 76
     1
 98
        1
 10
0.0
 20
0.0
  0
ENDBLK
  5
108
330
104
100
AcDbEntity
  8
0
 62
     7
100
AcDbBlockEnd
  0
ENDSEC
  0
SECTION
  2
ENTITIES
  0
LINE
  5
A9
330
75
100
AcDbEntity
  8
1
  6
Continuous
 62
     7
100
AcDbLine
 10
6.391732283464566
 20
3.54367716535433
 30
0.0
 11
6.391732283464566
 21
3.373022824071185
 31
0.0
  0
LINE
  5
AA
330
75
100
AcDbEntity
  8
1
  6
Continuous
 62
     7
100
AcDbLine
 10
0.4885063264673732
 20
7.778600903521098
 30
0.0
 11
11.22047244094488
 21
7.7786009035211
 31
0.0
  0
LINE
  5
AB
330
75
100
AcDbEntity
  8
1
  6
Continuous
 62
     7
100
AcDbLine
 10
0.4885063264673732
 20
7.778600903521098
 30
0.0
 11
0.4885063264673732
 21
0.4305880683833456
 31
0.0
  0
LINE
  5
AC
330
75
100
AcDbEntity
  8
1
  6
Continuous
 62
     7
100
AcDbLine
 10
0.4885063264673732
 20
0.4305880683833456
 30
0.0
 11
11.22047244094488
 21
0.4305880683833456
 31
0.0
  0
LINE
  5
AD
330
75
100
AcDbEntity
  8
1
  6
Continuous
 62
     7
100
AcDbLine
 10
11.22047244094488
 20
0.4305880683833447
 30
0.0
 11
11.22047244094488
 21
7.778600903521098
 31
0.0
  0
LINE
  5
AE
330
75
100
AcDbEntity
  8
1
  6
Continuous
 62
     7
100
AcDbLine
 10
7.739834782195419
 20
1.977538138938661
 30
0.0
 11
11.22047244094488
 21
1.977538138938661
 31
0.0
  0
LINE
  5
AF
330
75
100
AcDbEntity
  8
1
  6
Continuous
 62
     7
100
AcDbLine
 10
7.739834782195419
 20
1.977538138938661
 30
0.0
 11
7.739834782195419
 21
0.4305880683833454
 31
0.0
  0
LINE
  5
B0
330
75
100
AcDbEntity
  8
1
  6
Continuous
 62
     7
100
AcDbLine
 10
7.739834782195419
 20
1.590800621299832
 30
0.0
 11
11.22047244094488
 21
1.590800621299832
 31
0.0
  0
LINE
  5
B1
330
75
100
AcDbEntity
  8
1
  6
Continuous
 62
     7
100
AcDbLine
 10
7.739834782195419
 20
1.204063103661003
 30
0.0
 11
11.22047244094488
 21
1.204063103661003
 31
0.0
  0
LINE
  5
B2
330
75
100
AcDbEntity
  8
1
  6
Continuous
 62
     7
100
AcDbLine
 10
7.739834782195419
 20
0.8173255860221741
 30
0.0
 11
11.22047244094488
 21
0.8173255860221741
 31
0.0
  0
LINE
  5
B3
330
75
100
AcDbEntity
  8
1
  6
Continuous
 62
     7
100
AcDbLine
 10
0.4885063264673731
 20
1.590800621299832
 30
0.0
 11
7.836519161605124
 21
1.590800621299832
 31
0.0
  0
LINE
  5
B4
330
75
100
AcDbEntity
  8
1
  6
Continuous
 62
     7
100
AcDbLine
 10
0.4885063264673731
 20
1.204063103661003
 30
0.0
 11
7.836519161605124
 21
1.204063103661003
 31
0.0
  0
LINE
  5
B5
330
75
100
AcDbEntity
  8
1
  6
Continuous
 62
     7
100
AcDbLine
 10
4.114170554331395
 20
1.590800621299832
 30
0.0
 11
4.114170554331395
 21
1.204063103661003
 31
0.0
  0
TEXT
  5
B7
330
75
100
AcDbEntity
  8
1
  6
Continuous
 62
     7
100
AcDbText
 10
4.165906114425531
 20
1.320952236800802
 30
0.0
 40
0.1546950070555316
  1
Issue Date:
  7
ARIAL
100
AcDbText
  0
TEXT
  5
B9
330
75
100
AcDbEntity
  8
1
  6
Continuous
 62
     7
100
AcDbText
 10
0.5474814081311652
 20
1.327802757853095
 30
0.0
 40
0.1546950070555316
  1
Patient Name:
  7
ARIAL
100
AcDbText
  0
TEXT
  5
BA
330
75
100
AcDbEntity
  8
1
  6
Continuous
 62
     7
100
AcDbText
 10
7.894990697744844
 20
1.713720151416204
 30
0.0
 40
0.1546950070555316
  1
Compass AT Service (RHND) Putney
  7
ARIAL
100
AcDbText
  0
TEXT
  5
BB
330
75
100
AcDbEntity
  8
1
  6
Continuous
 62
     7
100
AcDbText
 10
7.77243302499493
 20
1.309204297602869
 30
0.0
 40
0.1546950070555316
  1
Title:
  7
ARIAL
100
AcDbText
  0
TEXT
  5
BC
330
75
100
AcDbEntity
  8
1
  6
Continuous
 62
     7
100
AcDbText
 10
7.782111242688889
 20
0.9181699917136928
 30
0.0
 40
0.1546950070555316
  1
Drawn:
  7
ARIAL
100
AcDbText
  0
TEXT
  5
BD
330
75
100
AcDbEntity
  8
1
  6
Continuous
 62
     7
100
AcDbText
 10
7.810774639413347
 20
0.5359065169406304
 30
0.0
 40
0.1546950070555316
  1
Date:
  7
ARIAL
100
AcDbText
  0
TEXT
  5
BE
330
75
100
AcDbEntity
  8
1
  6
Continuous
 62
     7
100
AcDbText
 10
0.5907960555169093
 20
1.002870938193047
 30
0.0
 40
0.1546950070555316
  1
Notes:
  7
ARIAL
100
AcDbText
  0
LINE
  5
BF
330
75
100
AcDbEntity
  8
1
  6
Continuous
 62
     7
100
AcDbLine
 10
8.51330981747308
 20
1.590800621299832
 30
0.0
 11
8.51330981747308
 21
0.4305880683833454
 31
0.0
  0
TEXT
  5
C0
330
75
100
AcDbEntity
  8
1
  6
Continuous
 62
     7
100
AcDbText
 10
8.711514762156648
 20
0.9261215582228391
 30
0.0
 40
0.1353581311735902
  1
PG Cullen
  7
ARIAL
100
AcDbText
  0
TEXT
  5
C1
330
75
100
AcDbEntity
  8
1
  6
Continuous
 62
     7
100
AcDbText
 10
8.708913945270655
 20
0.5718874918840618
 30
0.0
 40
0.1353581311735902
  1
29/01/2018
  7
ARIAL
100
AcDbText
  0
TEXT
  5
C2
330
75
100
AcDbEntity
  8
1
  6
Continuous
 62
     7
100
AcDbText
 10
8.60829196026416
 20
1.35575763191576
 30
0.0
 40
0.1353581311735902
  1
MMA845X Accelerometer housing
  7
ARIAL
100
AcDbText
  0
LINE
  5
C3
330
75
100
AcDbEntity
  8
1
  6
Continuous
 62
     7
100
AcDbLine
 10
9.673522370389564
 20
0.8173255860221741
 30
0.0
 11
9.673522370389564
 21
0.4305880683833454
 31
0.0
  0
TEXT
  5
C4
330
75
100
AcDbEntity
  8
1
  6
Continuous
 62
     7
100
AcDbText
 10
9.789935235455178
 20
0.5442004931868974
 30
0.0
 40
0.1546950070555316
  1
Version:
  7
ARIAL
100
AcDbText
  0
TEXT
  5
C5
330
75
100
AcDbEntity
  8
1
  6
Continuous
 62
     7
100
AcDbText
 10
10.69837679213246
 20
0.5659461995569353
 30
0.0
 40
0.1353581311735902
  1
1.00
  7
ARIAL
100
AcDbText
  0
TEXT
  5
C6
330
75
100
AcDbEntity
  8
1
  6
Continuous
 62
     7
100
AcDbText
 10
1.987330691512367
 20
1.331369389188737
 30
0.0
 40
0.1353581311735902
  1
________________
  7
ARIAL
100
AcDbText
  0
TEXT
  5
C7
330
75
100
AcDbEntity
  8
1
  6
Continuous
 62
     7
100
AcDbText
 10
5.275832069293064
 20
1.331600855964267
 30
0.0
 40
0.1353581311735902
  1
29/01/2018
  7
ARIAL
100
AcDbText
  0
LINE
  5
C8
330
75
100
AcDbEntity
  8
1
  6
Continuous
 62
     7
100
AcDbLine
 10
4.742480314960629
 20
3.429606299212597
 30
0.0
 11
5.572480314960629
 21
3.429606299212597
 31
0.0
  0
LINE
  5
C9
330
75
100
AcDbEntity
  8
1
  6
Continuous
 62
     7
100
AcDbLine
 10
4.742480314960629
 20
2.869606299212597
 30
0.0
 11
5.572480314960629
 21
2.869606299212597
 31
0.0
  0
LINE
  5
CA
330
75
100
AcDbEntity
  8
1
  6
Continuous
 62
     7
100
AcDbLine
 10
4.742480314960629
 20
3.429606299212597
 30
0.0
 11
4.742480314960629
 21
2.869606299212597
 31
0.0
  0
LINE
  5
CB
330
75
100
AcDbEntity
  8
1
  6
Continuous
 62
     7
100
AcDbLine
 10
5.572480314960629
 20
3.429606299212597
 30
0.0
 11
5.572480314960629
 21
2.869606299212597
 31
0.0
  0
LINE
  5
CC
330
75
100
AcDbEntity
  8
1
  6
Continuous
 62
     7
100
AcDbLine
 10
4.89709810209967
 20
3.464566929133858
 30
0.0
 11
5.417862527821587
 21
3.464566929133858
 31
0.0
  0
LINE
  5
CD
330
75
100
AcDbEntity
  8
1
  6
Continuous
 62
     7
100
AcDbLine
 10
4.89709810209967
 20
2.834645669291337
 30
0.0
 11
5.417862527821587
 21
2.834645669291337
 31
0.0
  0
LINE
  5
CE
330
75
100
AcDbEntity
  8
1
  6
Continuous
 62
     7
100
AcDbLine
 10
4.89709810209967
 20
2.755905511811023
 30
0.0
 11
5.417862527821587
 21
2.755905511811023
 31
0.0
  0
LINE
  5
CF
330
75
100
AcDbEntity
  8
1
  6
Continuous
 62
     7
100
AcDbLine
 10
4.89709810209967
 20
3.543307086614173
 30
0.0
 11
5.417862527821587
 21
3.543307086614173
 31
0.0
  0
LINE
  5
D0
330
75
100
AcDbEntity
  8
1
  6
Continuous
 62
     7
100
AcDbLine
 10
6.141732283464566
 20
3.54367716535433
 30
0.0
 11
6.141732283464566
 21
2.751125984251967
 31
0.0
  0
LINE
  5
D1
330
75
100
AcDbEntity
  8
1
  6
Continuous
 62
     7
100
AcDbLine
 10
6.141732283464561
 20
3.543307086614173
 30
0.0
 11
6.391732283464567
 21
3.543307086614173
 31
0.0
  0
LINE
  5
D2
330
75
100
AcDbEntity
  8
1
  6
Continuous
 62
     7
100
AcDbLine
 10
6.141732283464566
 20
3.464566929133858
 30
0.0
 11
6.391732283464568
 21
3.464566929133858
 31
0.0
  0
LINE
  5
D3
330
75
100
AcDbEntity
  8
1
  6
Continuous
 62
     7
100
AcDbLine
 10
6.141732283464566
 20
2.755905511811023
 30
0.0
 11
6.39173228346455
 21
2.755905511811023
 31
0.0
  0
LINE
  5
D4
330
75
100
AcDbEntity
  8
1
  6
Continuous
 62
     7
100
AcDbLine
 10
6.180732283464566
 20
2.712125984251968
 30
0.0
 11
6.352732283464566
 21
2.712125984251968
 31
0.0
  0
LINE
  5
D5
330
75
100
AcDbEntity
  8
1
  6
Continuous
 62
     7
100
AcDbLine
 10
6.141732283464566
 20
3.429606299212598
 30
0.0
 11
6.279527559055117
 21
3.429606299212598
 31
0.0
  0
LINE
  5
D6
330
75
100
AcDbEntity
  8
1
  6
Continuous
 62
     7
100
AcDbLine
 10
6.141732283464568
 20
2.874015748031495
 30
0.0
 11
6.279527559055117
 21
2.874015748031495
 31
0.0
  0
ARC
  5
D7
330
75
100
AcDbEntity
  8
1
  6
Continuous
 62
     7
100
AcDbCircle
 10
6.692913385826769
 20
3.149606299212599
 30
0.0
 40
0.374999999999998
100
AcDbArc
 50
143.4319289831105
 51
157.4999999999999
  0
ARC
  5
D8
330
75
100
AcDbEntity
  8
1
  6
Continuous
 62
     7
100
AcDbCircle
 10
6.692913385826775
 20
3.149606299212598
 30
0.0
 40
0.3750000000000045
100
AcDbArc
 50
157.5
 51
180.0
  0
ARC
  5
D9
330
75
100
AcDbEntity
  8
1
  6
Continuous
 62
     7
100
AcDbCircle
 10
6.692913385826761
 20
3.149606299212598
 30
0.0
 40
0.3749999999999907
100
AcDbArc
 50
180.0
 51
202.5000000000004
  0
ARC
  5
DA
330
75
100
AcDbEntity
  8
1
  6
Continuous
 62
     7
100
AcDbCircle
 10
6.69291338582676
 20
3.149606299212586
 30
0.0
 40
0.3749999999999849
100
AcDbArc
 50
202.4999999999988
 51
216.568071016889
  0
LINE
  5
DB
330
75
100
AcDbEntity
  8
1
  6
Continuous
 62
     7
100
AcDbLine
 10
6.391732283464566
 20
2.926189774354011
 30
0.0
 11
6.391732283464566
 21
2.751125984251967
 31
0.0
  0
LINE
  5
DC
330
75
100
AcDbEntity
  8
1
  6
Continuous
 62
     7
100
AcDbLine
 10
4.684669291338582
 20
3.58267716535433
 30
0.0
 11
5.748401574803149
 21
3.58267716535433
 31
0.0
  0
LINE
  5
DD
330
75
100
AcDbEntity
  8
1
  6
Continuous
 62
     7
100
AcDbLine
 10
4.684669291338582
 20
2.716535433070865
 30
0.0
 11
5.748401574803149
 21
2.716535433070865
 31
0.0
  0
LINE
  5
DE
330
75
100
AcDbEntity
  8
1
  6
Continuous
 62
     7
100
AcDbLine
 10
5.787401574803149
 20
3.54367716535433
 30
0.0
 11
5.787401574803149
 21
2.755535433070865
 31
0.0
  0
LINE
  5
DF
330
75
100
AcDbEntity
  8
1
  6
Continuous
 62
     7
100
AcDbLine
 10
4.645669291338582
 20
3.54367716535433
 30
0.0
 11
4.645669291338582
 21
2.755535433070865
 31
0.0
  0
LINE
  5
E0
330
75
100
AcDbEntity
  8
1
  6
Continuous
 62
     7
100
AcDbLine
 10
4.857728023359513
 20
2.79527559055118
 30
0.0
 11
5.457232606561745
 21
2.79527559055118
 31
0.0
  0
LINE
  5
E1
330
75
100
AcDbEntity
  8
1
  6
Continuous
 62
     7
100
AcDbLine
 10
4.857728023359513
 20
3.503937007874015
 30
0.0
 11
5.457232606561745
 21
3.503937007874015
 31
0.0
  0
CIRCLE
  5
E2
330
75
100
AcDbEntity
  8
1
  6
Continuous
 62
     7
100
AcDbCircle
 10
5.544641465307615
 20
3.401767449559583
 30
0.0
 40
0.0393700787401575
  0
CIRCLE
  5
E3
330
75
100
AcDbEntity
  8
1
  6
Continuous
 62
     7
100
AcDbCircle
 10
4.770319164613643
 20
3.401767449559583
 30
0.0
 40
0.0393700787401575
  0
CIRCLE
  5
E4
330
75
100
AcDbEntity
  8
1
  6
Continuous
 62
     7
100
AcDbCircle
 10
4.770319164613643
 20
2.897445148865611
 30
0.0
 40
0.0393700787401575
  0
CIRCLE
  5
E5
330
75
100
AcDbEntity
  8
1
  6
Continuous
 62
     7
100
AcDbCircle
 10
5.544641465307615
 20
2.897445148865611
 30
0.0
 40
0.0393700787401575
  0
LINE
  5
E6
330
75
100
AcDbEntity
  8
1
  6
HIDDEN
 62
     7
100
AcDbLine
 10
4.781850393700787
 20
3.39023622047244
 30
0.0
 11
4.781850393700787
 21
2.908976377952755
 31
0.0
  0
LINE
  5
E7
330
75
100
AcDbEntity
  8
1
  6
HIDDEN
 62
     7
100
AcDbLine
 10
5.533110236220472
 20
3.39023622047244
 30
0.0
 11
5.533110236220472
 21
2.908976377952755
 31
0.0
  0
LINE
  5
E8
330
75
100
AcDbEntity
  8
1
  6
HIDDEN
 62
     7
100
AcDbLine
 10
4.781850393700787
 20
3.39023622047244
 30
0.0
 11
5.533110236220472
 21
3.39023622047244
 31
0.0
  0
LINE
  5
E9
330
75
100
AcDbEntity
  8
1
  6
HIDDEN
 62
     7
100
AcDbLine
 10
4.781850393700787
 20
2.908976377952755
 30
0.0
 11
5.533110236220472
 21
2.908976377952755
 31
0.0
  0
TEXT
  5
EA
330
75
100
AcDbEntity
  8
1
  6
Continuous
 62
     7
100
AcDbText
 10
2.007874015748031
 20
0.9842519685039372
 30
0.0
 40
0.1353581311735902
  1
Material: 0.25 inch ABS sheet
  7
ARIAL
100
AcDbText
  0
TEXT
  5
EB
330
75
100
AcDbEntity
  8
1
  6
Continuous
 62
     7
100
AcDbText
 10
1.997016015315702
 20
0.747724792669553
 30
0.0
 40
0.1353581311735902
  1
Bottom arc created by 0.75 inch bullnose cutter
  7
ARIAL
100
AcDbText
  0
CIRCLE
  5
EC
330
75
100
AcDbEntity
  8
1
  6
Continuous
 62
     7
100
AcDbCircle
 10
6.281578196528617
 20
3.370551181102362
 30
0.0
 40
0.078740157480315
  0
LINE
  5
ED
330
75
100
AcDbEntity
  8
1
  6
HIDDEN
 62
     7
100
AcDbLine
 10
5.866141732283463
 20
3.449291338582677
 30
0.0
 11
4.776575803298599
 21
3.449291338582677
 31
0.0
  0
LINE
  5
EE
330
75
100
AcDbEntity
  8
1
  6
HIDDEN
 62
     7
100
AcDbLine
 10
5.572480314960629
 20
3.291811023622047
 30
0.0
 11
4.742480314960629
 21
3.291811023622047
 31
0.0
  0
LINE
  5
EF
330
75
100
AcDbEntity
  8
1
  6
HIDDEN
 62
     7
100
AcDbLine
 10
5.572480314960629
 20
3.291811023622047
 30
0.0
 11
5.866141732283465
 21
3.291811023622047
 31
0.0
  0
ARC
  5
F0
330
75
100
AcDbEntity
  8
1
  6
Continuous
 62
     7
100
AcDbCircle
 10
4.89709810209967
 20
3.503937007874015
 30
0.0
 40
0.0393700787401575
100
AcDbArc
 50
90.0000000000001
 51
179.9999999999986
  0
ARC
  5
F1
330
75
100
AcDbEntity
  8
1
  6
Continuous
 62
     7
100
AcDbCircle
 10
4.89709810209967
 20
3.503937007874015
 30
0.0
 40
0.0393700787401575
100
AcDbArc
 50
179.9999999999987
 51
270.0000000000001
  0
ARC
  5
F2
330
75
100
AcDbEntity
  8
1
  6
Continuous
 62
     7
100
AcDbCircle
 10
5.417862527821587
 20
3.503937007874015
 30
0.0
 40
0.0393700787401575
100
AcDbArc
 50
0.0000000000012722
 51
90.00000000000005
  0
ARC
  5
F3
330
75
100
AcDbEntity
  8
1
  6
Continuous
 62
     7
100
AcDbCircle
 10
5.417862527821587
 20
3.503937007874015
 30
0.0
 40
0.0393700787401575
100
AcDbArc
 50
270.0000000000001
 51
0.0000000000013589
  0
ARC
  5
F4
330
75
100
AcDbEntity
  8
1
  6
Continuous
 62
     7
100
AcDbCircle
 10
4.89709810209967
 20
2.79527559055118
 30
0.0
 40
0.0393700787401575
100
AcDbArc
 50
90.00000000000005
 51
180.0
  0
ARC
  5
F5
330
75
100
AcDbEntity
  8
1
  6
Continuous
 62
     7
100
AcDbCircle
 10
4.89709810209967
 20
2.79527559055118
 30
0.0
 40
0.0393700787401575
100
AcDbArc
 50
180.0
 51
270.0000000000001
  0
ARC
  5
F6
330
75
100
AcDbEntity
  8
1
  6
Continuous
 62
     7
100
AcDbCircle
 10
5.417862527821587
 20
2.79527559055118
 30
0.0
 40
0.0393700787401575
100
AcDbArc
 50
0.0
 51
90.00000000000005
  0
ARC
  5
F7
330
75
100
AcDbEntity
  8
1
  6
Continuous
 62
     7
100
AcDbCircle
 10
5.417862527821587
 20
2.79527559055118
 30
0.0
 40
0.0393700787401575
100
AcDbArc
 50
270.0000000000001
 51
0.0
  0
LINE
  5
F8
330
75
100
AcDbEntity
  8
1
  6
Continuous
 62
     7
100
AcDbLine
 10
6.180732283464566
 20
3.58267716535433
 30
0.0
 11
6.352732283464566
 21
3.58267716535433
 31
0.0
  0
LINE
  5
F9
330
75
100
AcDbEntity
  8
1
  6
Continuous
 62
     7
100
AcDbLine
 10
6.141732283464566
 20
2.834645669291337
 30
0.0
 11
6.39173228346455
 21
2.834645669291337
 31
0.0
  0
ARC
  5
FA
330
75
100
AcDbEntity
  8
1
  6
Continuous
 62
     7
100
AcDbCircle
 10
6.180732283464566
 20
3.54367716535433
 30
0.0
 40
0.039
100
AcDbArc
 50
90.00000000000005
 51
180.0
  0
ARC
  5
FB
330
75
100
AcDbEntity
  8
1
  6
Continuous
 62
     7
100
AcDbCircle
 10
6.352732283464566
 20
3.54367716535433
 30
0.0
 40
0.039
100
AcDbArc
 50
0.0
 51
90.00000000000005
  0
ARC
  5
FC
330
75
100
AcDbEntity
  8
1
  6
Continuous
 62
     7
100
AcDbCircle
 10
6.180732283464566
 20
2.751125984251967
 30
0.0
 40
0.039
100
AcDbArc
 50
180.0
 51
270.0000000000001
  0
ARC
  5
FD
330
75
100
AcDbEntity
  8
1
  6
Continuous
 62
     7
100
AcDbCircle
 10
6.352732283464566
 20
2.751125984251967
 30
0.0
 40
0.039
100
AcDbArc
 50
270.0000000000001
 51
0.0000000000000799
  0
ARC
  5
FE
330
75
100
AcDbEntity
  8
1
  6
Continuous
 62
     7
100
AcDbCircle
 10
4.684669291338582
 20
3.54367716535433
 30
0.0
 40
0.039
100
AcDbArc
 50
90.0000000000001
 51
180.0000000000013
  0
ARC
  5
FF
330
75
100
AcDbEntity
  8
1
  6
Continuous
 62
     7
100
AcDbCircle
 10
4.684669291338582
 20
2.755535433070865
 30
0.0
 40
0.039
100
AcDbArc
 50
180.0
 51
270.0000000000001
  0
TEXT
  5
100
330
75
100
AcDbEntity
  8
1
  6
Continuous
 62
     7
100
AcDbText
 10
5.025785217688301
 20
4.087106299212598
 30
0.0
 40
0.125
  1
0.136"
  7
ARIAL
 72
     1
 11
5.27527362150822
 21
4.149606299212598
 31
0.0
100
AcDbText
 73
     2
  0
LINE
  5
101
330
75
100
AcDbEntity
  8
1
  6
Continuous
 62
     7
100
AcDbLine
 10
4.781850393700787
 20
3.228346456692912
 30
0.0
 11
4.781850393700787
 21
4.228346456692912
 31
0.0
  0
LINE
  5
102
330
75
100
AcDbEntity
  8
1
  6
Continuous
 62
     7
100
AcDbLine
 10
4.645669291338582
 20
4.149606299212598
 30
0.0
 11
4.488188976377952
 21
4.149606299212598
 31
0.0
  0
LINE
  5
103
330
75
100
AcDbEntity
  8
1
  6
Continuous
 62
     7
100
AcDbLine
 10
4.781850393700787
 20
4.149606299212598
 30
0.0
 11
4.939330708661416
 21
4.149606299212598
 31
0.0
  0
INSERT
  5
109
330
75
100
AcDbEntity
  8
1
  6
Continuous
 62
     7
100
AcDbBlockReference
  2
LONGARROW
 10
4.645669291338582
 20
4.149606299212598
 30
0.0
 41
0.078740157480315
 42
0.078740157480315
 50
180.0
  0
INSERT
  5
10A
330
75
100
AcDbEntity
  8
1
  6
Continuous
 62
     7
100
AcDbBlockReference
  2
LONGARROW
 10
4.781850393700787
 20
4.149606299212598
 30
0.0
 41
0.078740157480315
 42
0.078740157480315
  0
TEXT
  5
10B
330
75
100
AcDbEntity
  8
1
  6
Continuous
 62
     7
100
AcDbText
 10
5.141032926087185
 20
4.462106299212598
 30
0.0
 40
0.125
  1
0.251"
  7
ARIAL
 72
     1
 11
5.390521329907103
 21
4.524606299212598
 31
0.0
100
AcDbText
 73
     2
  0
LINE
  5
10C
330
75
100
AcDbEntity
  8
1
  6
Continuous
 62
     7
100
AcDbLine
 10
4.89709810209967
 20
3.58267716535433
 30
0.0
 11
4.89709810209967
 21
4.603346456692912
 31
0.0
  0
LINE
  5
10D
330
75
100
AcDbEntity
  8
1
  6
Continuous
 62
     7
100
AcDbLine
 10
4.645669291338582
 20
4.524606299212598
 30
0.0
 11
4.488188976377952
 21
4.524606299212598
 31
0.0
  0
LINE
  5
10E
330
75
100
AcDbEntity
  8
1
  6
Continuous
 62
     7
100
AcDbLine
 10
4.89709810209967
 20
4.524606299212598
 30
0.0
 11
5.0545784170603
 21
4.524606299212598
 31
0.0
  0
INSERT
  5
10F
330
75
100
AcDbEntity
  8
1
  6
Continuous
 62
     7
100
AcDbBlockReference
  2
LONGARROW
 10
4.645669291338582
 20
4.524606299212598
 30
0.0
 41
0.078740157480315
 42
0.078740157480315
 50
180.0
  0
INSERT
  5
110
330
75
100
AcDbEntity
  8
1
  6
Continuous
 62
     7
100
AcDbBlockReference
  2
LONGARROW
 10
4.89709810209967
 20
4.524606299212598
 30
0.0
 41
0.078740157480315
 42
0.078740157480315
  0
TEXT
  5
111
330
75
100
AcDbEntity
  8
1
  6
Continuous
 62
     7
100
AcDbText
 10
5.661797351809102
 20
4.837106299212597
 30
0.0
 40
0.125
  1
0.772"
  7
ARIAL
 72
     1
 11
5.911285755629021
 21
4.899606299212597
 31
0.0
100
AcDbText
 73
     2
  0
LINE
  5
112
330
75
100
AcDbEntity
  8
1
  6
Continuous
 62
     7
100
AcDbLine
 10
5.417862527821587
 20
3.58267716535433
 30
0.0
 11
5.417862527821587
 21
4.978346456692912
 31
0.0
  0
LINE
  5
113
330
75
100
AcDbEntity
  8
1
  6
Continuous
 62
     7
100
AcDbLine
 10
4.645669291338582
 20
4.899606299212597
 30
0.0
 11
4.488188976377952
 21
4.899606299212597
 31
0.0
  0
LINE
  5
114
330
75
100
AcDbEntity
  8
1
  6
Continuous
 62
     7
100
AcDbLine
 10
5.417862527821587
 20
4.899606299212597
 30
0.0
 11
5.575342842782217
 21
4.899606299212597
 31
0.0
  0
INSERT
  5
115
330
75
100
AcDbEntity
  8
1
  6
Continuous
 62
     7
100
AcDbBlockReference
  2
LONGARROW
 10
4.645669291338582
 20
4.899606299212597
 30
0.0
 41
0.078740157480315
 42
0.078740157480315
 50
180.0
  0
INSERT
  5
116
330
75
100
AcDbEntity
  8
1
  6
Continuous
 62
     7
100
AcDbBlockReference
  2
LONGARROW
 10
5.417862527821587
 20
4.899606299212597
 30
0.0
 41
0.078740157480315
 42
0.078740157480315
  0
TEXT
  5
117
330
75
100
AcDbEntity
  8
1
  6
Continuous
 62
     7
100
AcDbText
 10
5.777045060207987
 20
5.212106299212597
 30
0.0
 40
0.125
  1
0.887"
  7
ARIAL
 72
     1
 11
6.026533464027905
 21
5.274606299212597
 31
0.0
100
AcDbText
 73
     2
  0
LINE
  5
118
330
75
100
AcDbEntity
  8
1
  6
Continuous
 62
     7
100
AcDbLine
 10
5.533110236220472
 20
3.468976377952754
 30
0.0
 11
5.533110236220472
 21
5.353346456692912
 31
0.0
  0
LINE
  5
119
330
75
100
AcDbEntity
  8
1
  6
Continuous
 62
     7
100
AcDbLine
 10
4.645669291338582
 20
5.274606299212597
 30
0.0
 11
4.488188976377952
 21
5.274606299212597
 31
0.0
  0
LINE
  5
11A
330
75
100
AcDbEntity
  8
1
  6
Continuous
 62
     7
100
AcDbLine
 10
5.533110236220472
 20
5.274606299212597
 30
0.0
 11
5.690590551181101
 21
5.274606299212597
 31
0.0
  0
INSERT
  5
11B
330
75
100
AcDbEntity
  8
1
  6
Continuous
 62
     7
100
AcDbBlockReference
  2
LONGARROW
 10
4.645669291338582
 20
5.274606299212597
 30
0.0
 41
0.078740157480315
 42
0.078740157480315
 50
180.0
  0
INSERT
  5
11C
330
75
100
AcDbEntity
  8
1
  6
Continuous
 62
     7
100
AcDbBlockReference
  2
LONGARROW
 10
5.533110236220472
 20
5.274606299212597
 30
0.0
 41
0.078740157480315
 42
0.078740157480315
  0
TEXT
  5
11D
330
75
100
AcDbEntity
  8
1
  6
Continuous
 62
     7
100
AcDbText
 10
4.967047029250946
 20
5.587106299212596
 30
0.0
 40
0.125
  1
1.142"
  7
ARIAL
 72
     1
 11
5.216535433070864
 21
5.649606299212596
 31
0.0
100
AcDbText
 73
     2
  0
LINE
  5
11E
330
75
100
AcDbEntity
  8
1
  6
Continuous
 62
     7
100
AcDbLine
 10
4.645669291338582
 20
3.228346456692912
 30
0.0
 11
4.645669291338582
 21
5.728346456692911
 31
0.0
  0
LINE
  5
11F
330
75
100
AcDbEntity
  8
1
  6
Continuous
 62
     7
100
AcDbLine
 10
5.787401574803148
 20
3.468976377952754
 30
0.0
 11
5.787401574803148
 21
5.728346456692911
 31
0.0
  0
LINE
  5
120
330
75
100
AcDbEntity
  8
1
  6
Continuous
 62
     7
100
AcDbLine
 10
4.645669291338582
 20
5.649606299212596
 30
0.0
 11
4.880592520224061
 21
5.649606299212596
 31
0.0
  0
LINE
  5
121
330
75
100
AcDbEntity
  8
1
  6
Continuous
 62
     7
100
AcDbLine
 10
5.787401574803148
 20
5.649606299212596
 30
0.0
 11
5.552478345917668
 21
5.649606299212596
 31
0.0
  0
INSERT
  5
122
330
75
100
AcDbEntity
  8
1
  6
Continuous
 62
     7
100
AcDbBlockReference
  2
LONGARROW
 10
4.645669291338582
 20
5.649606299212596
 30
0.0
 41
0.078740157480315
 42
0.078740157480315
  0
INSERT
  5
123
330
75
100
AcDbEntity
  8
1
  6
Continuous
 62
     7
100
AcDbBlockReference
  2
LONGARROW
 10
5.787401574803148
 20
5.649606299212596
 30
0.0
 41
0.078740157480315
 42
0.078740157480315
 50
180.0
  0
LINE
  5
124
330
75
100
AcDbEntity
  8
1
  6
Continuous
 62
     7
100
AcDbLine
 10
6.279527559055117
 20
3.429606299212598
 30
0.0
 11
6.279527559055117
 21
2.874015748031495
 31
0.0
  0
TEXT
  5
125
330
75
100
AcDbEntity
  8
1
  6
Continuous
 62
     7
100
AcDbText
 10
3.996159819917999
 20
3.190206692913385
 30
0.0
 40
0.125
  1
0.079"
  7
ARIAL
 72
     1
 11
4.245648223737918
 21
3.252706692913385
 31
0.0
100
AcDbText
 73
     2
  0
LINE
  5
126
330
75
100
AcDbEntity
  8
1
  6
Continuous
 62
     7
100
AcDbLine
 10
5.086640507729176
 20
3.503937007874015
 30
0.0
 11
4.166908066257603
 21
3.503937007874015
 31
0.0
  0
LINE
  5
127
330
75
100
AcDbEntity
  8
1
  6
Continuous
 62
     7
100
AcDbLine
 10
4.245648223737918
 20
3.58267716535433
 30
0.0
 11
4.245648223737918
 21
3.74015748031496
 31
0.0
  0
LINE
  5
128
330
75
100
AcDbEntity
  8
1
  6
Continuous
 62
     7
100
AcDbLine
 10
4.245648223737918
 20
3.503937007874015
 30
0.0
 11
4.245648223737918
 21
3.346456692913385
 31
0.0
  0
INSERT
  5
129
330
75
100
AcDbEntity
  8
1
  6
Continuous
 62
     7
100
AcDbBlockReference
  2
LONGARROW
 10
4.245648223737918
 20
3.58267716535433
 30
0.0
 41
0.078740157480315
 42
0.078740157480315
 50
90.00000000000007
  0
INSERT
  5
12A
330
75
100
AcDbEntity
  8
1
  6
Continuous
 62
     7
100
AcDbBlockReference
  2
LONGARROW
 10
4.245648223737918
 20
3.503937007874015
 30
0.0
 41
0.078740157480315
 42
0.078740157480315
 50
270.0000000000001
  0
TEXT
  5
12B
330
75
100
AcDbEntity
  8
1
  6
Continuous
 62
     7
100
AcDbText
 10
3.487240080097315
 20
3.076505905511809
 30
0.0
 40
0.125
  1
0.192"
  7
ARIAL
 72
     1
 11
3.736728483917233
 21
3.139005905511809
 31
0.0
100
AcDbText
 73
     2
  0
LINE
  5
12C
330
75
100
AcDbEntity
  8
1
  6
Continuous
 62
     7
100
AcDbLine
 10
5.075683922941676
 20
3.390236220472439
 30
0.0
 11
3.657988326436918
 21
3.390236220472439
 31
0.0
  0
LINE
  5
12D
330
75
100
AcDbEntity
  8
1
  6
Continuous
 62
     7
100
AcDbLine
 10
3.736728483917233
 20
3.58267716535433
 30
0.0
 11
3.736728483917233
 21
3.74015748031496
 31
0.0
  0
LINE
  5
12E
330
75
100
AcDbEntity
  8
1
  6
Continuous
 62
     7
100
AcDbLine
 10
3.736728483917233
 20
3.390236220472439
 30
0.0
 11
3.736728483917233
 21
3.232755905511809
 31
0.0
  0
INSERT
  5
12F
330
75
100
AcDbEntity
  8
1
  6
Continuous
 62
     7
100
AcDbBlockReference
  2
LONGARROW
 10
3.736728483917233
 20
3.58267716535433
 30
0.0
 41
0.078740157480315
 42
0.078740157480315
 50
90.00000000000007
  0
INSERT
  5
130
330
75
100
AcDbEntity
  8
1
  6
Continuous
 62
     7
100
AcDbBlockReference
  2
LONGARROW
 10
3.736728483917233
 20
3.390236220472439
 30
0.0
 41
0.078740157480315
 42
0.078740157480315
 50
270.0000000000001
  0
TEXT
  5
131
330
75
100
AcDbEntity
  8
1
  6
Continuous
 62
     7
100
AcDbText
 10
3.061700098025931
 20
3.183326771653542
 30
0.0
 40
0.125
  1
0.674"
  7
ARIAL
 72
     1
 11
3.311188501845849
 21
3.245826771653542
 31
0.0
100
AcDbText
 73
     2
  0
LINE
  5
132
330
75
100
AcDbEntity
  8
1
  6
Continuous
 62
     7
100
AcDbLine
 10
5.073612797889538
 20
2.908976377952755
 30
0.0
 11
3.232448344365534
 21
2.908976377952755
 31
0.0
  0
LINE
  5
133
330
75
100
AcDbEntity
  8
1
  6
Continuous
 62
     7
100
AcDbLine
 10
3.311188501845848
 20
3.58267716535433
 30
0.0
 11
3.311188501845848
 21
3.339576771653542
 31
0.0
  0
LINE
  5
134
330
75
100
AcDbEntity
  8
1
  6
Continuous
 62
     7
100
AcDbLine
 10
3.311188501845849
 20
2.908976377952755
 30
0.0
 11
3.311188501845849
 21
3.152076771653542
 31
0.0
  0
INSERT
  5
135
330
75
100
AcDbEntity
  8
1
  6
Continuous
 62
     7
100
AcDbBlockReference
  2
LONGARROW
 10
3.311188501845848
 20
3.58267716535433
 30
0.0
 41
0.078740157480315
 42
0.078740157480315
 50
270.0000000000001
  0
INSERT
  5
136
330
75
100
AcDbEntity
  8
1
  6
Continuous
 62
     7
100
AcDbBlockReference
  2
LONGARROW
 10
3.311188501845849
 20
2.908976377952755
 30
0.0
 41
0.078740157480315
 42
0.078740157480315
 50
90.00000000000005
  0
TEXT
  5
137
330
75
100
AcDbEntity
  8
1
  6
Continuous
 62
     7
100
AcDbText
 10
2.591923734754678
 20
3.126476377952755
 30
0.0
 40
0.125
  1
0.787"
  7
ARIAL
 72
     1
 11
2.841412138574596
 21
3.188976377952755
 31
0.0
100
AcDbText
 73
     2
  0
LINE
  5
138
330
75
100
AcDbEntity
  8
1
  6
Continuous
 62
     7
100
AcDbLine
 10
5.070282070876239
 20
2.795275590551181
 30
0.0
 11
2.762671981094282
 21
2.795275590551181
 31
0.0
  0
LINE
  5
139
330
75
100
AcDbEntity
  8
1
  6
Continuous
 62
     7
100
AcDbLine
 10
2.841412138574596
 20
3.58267716535433
 30
0.0
 11
2.841412138574596
 21
3.282726377952755
 31
0.0
  0
LINE
  5
13A
330
75
100
AcDbEntity
  8
1
  6
Continuous
 62
     7
100
AcDbLine
 10
2.841412138574597
 20
2.795275590551181
 30
0.0
 11
2.841412138574597
 21
3.095226377952755
 31
0.0
  0
INSERT
  5
13B
330
75
100
AcDbEntity
  8
1
  6
Continuous
 62
     7
100
AcDbBlockReference
  2
LONGARROW
 10
2.841412138574596
 20
3.58267716535433
 30
0.0
 41
0.078740157480315
 42
0.078740157480315
 50
270.0000000000001
  0
INSERT
  5
13C
330
75
100
AcDbEntity
  8
1
  6
Continuous
 62
     7
100
AcDbBlockReference
  2
LONGARROW
 10
2.841412138574597
 20
2.795275590551181
 30
0.0
 41
0.078740157480315
 42
0.078740157480315
 50
90.00000000000005
  0
TEXT
  5
13D
330
75
100
AcDbEntity
  8
1
  6
Continuous
 62
     7
100
AcDbText
 10
2.083188761534411
 20
3.087106299212598
 30
0.0
 40
0.125
  1
0.866"
  7
ARIAL
 72
     1
 11
2.332677165354329
 21
3.149606299212598
 31
0.0
100
AcDbText
 73
     2
  0
LINE
  5
13E
330
75
100
AcDbEntity
  8
1
  6
Continuous
 62
     7
100
AcDbLine
 10
5.177165354330708
 20
3.58267716535433
 30
0.0
 11
2.253937007874014
 21
3.58267716535433
 31
0.0
  0
LINE
  5
13F
330
75
100
AcDbEntity
  8
1
  6
Continuous
 62
     7
100
AcDbLine
 10
5.066437007874016
 20
2.716535433070865
 30
0.0
 11
2.253937007874015
 21
2.716535433070865
 31
0.0
  0
LINE
  5
140
330
75
100
AcDbEntity
  8
1
  6
Continuous
 62
     7
100
AcDbLine
 10
2.332677165354329
 20
3.58267716535433
 30
0.0
 11
2.332677165354329
 21
3.243356299212598
 31
0.0
  0
LINE
  5
141
330
75
100
AcDbEntity
  8
1
  6
Continuous
 62
     7
100
AcDbLine
 10
2.33267716535433
 20
2.716535433070865
 30
0.0
 11
2.332677165354329
 21
3.055856299212598
 31
0.0
  0
INSERT
  5
142
330
75
100
AcDbEntity
  8
1
  6
Continuous
 62
     7
100
AcDbBlockReference
  2
LONGARROW
 10
2.332677165354329
 20
3.58267716535433
 30
0.0
 41
0.078740157480315
 42
0.078740157480315
 50
270.0000000000001
  0
INSERT
  5
143
330
75
100
AcDbEntity
  8
1
  6
Continuous
 62
     7
100
AcDbBlockReference
  2
LONGARROW
 10
2.33267716535433
 20
2.716535433070865
 30
0.0
 41
0.078740157480315
 42
0.078740157480315
 50
90.00000000000005
  0
TEXT
  5
144
330
75
100
AcDbEntity
  8
1
  6
Continuous
 62
     7
100
AcDbText
 10
7.032089792708699
 20
3.056820866141732
 30
0.0
 40
0.125
  1
0.212"
  7
ARIAL
 72
     1
 11
7.281578196528617
 21
3.119320866141732
 31
0.0
100
AcDbText
 73
     2
  0
LINE
  5
145
330
75
100
AcDbEntity
  8
1
  6
Continuous
 62
     7
100
AcDbLine
 10
6.345472440944881
 20
3.58267716535433
 30
0.0
 11
7.360318354008932
 21
3.58267716535433
 31
0.0
  0
LINE
  5
146
330
75
100
AcDbEntity
  8
1
  6
Continuous
 62
     7
100
AcDbLine
 10
6.360318354008932
 20
3.370551181102362
 30
0.0
 11
7.360318354008932
 21
3.370551181102362
 31
0.0
  0
LINE
  5
147
330
75
100
AcDbEntity
  8
1
  6
Continuous
 62
     7
100
AcDbLine
 10
7.281578196528617
 20
3.58267716535433
 30
0.0
 11
7.281578196528617
 21
3.74015748031496
 31
0.0
  0
LINE
  5
148
330
75
100
AcDbEntity
  8
1
  6
Continuous
 62
     7
100
AcDbLine
 10
7.281578196528617
 20
3.370551181102362
 30
0.0
 11
7.281578196528617
 21
3.213070866141732
 31
0.0
  0
INSERT
  5
149
330
75
100
AcDbEntity
  8
1
  6
Continuous
 62
     7
100
AcDbBlockReference
  2
LONGARROW
 10
7.281578196528617
 20
3.58267716535433
 30
0.0
 41
0.078740157480315
 42
0.078740157480315
 50
90.00000000000007
  0
INSERT
  5
14A
330
75
100
AcDbEntity
  8
1
  6
Continuous
 62
     7
100
AcDbBlockReference
  2
LONGARROW
 10
7.281578196528617
 20
3.370551181102362
 30
0.0
 41
0.078740157480315
 42
0.078740157480315
 50
270.0000000000001
  0
TEXT
  5
14B
330
75
100
AcDbEntity
  8
1
  6
Continuous
 62
     7
100
AcDbText
 10
5.575001754199418
 20
2.307044908581342
 30
0.0
 40
0.125
  1
0.074"
  7
ARIAL
 72
     1
 11
5.824490158019337
 21
2.369544908581342
 31
0.0
100
AcDbText
 73
     2
  0
LINE
  5
14C
330
75
100
AcDbEntity
  8
1
  6
Continuous
 62
     7
100
AcDbLine
 10
6.391732283464566
 20
2.884025090084078
 30
0.0
 11
6.391732283464566
 21
2.290804751101027
 31
0.0
  0
LINE
  5
14D
330
75
100
AcDbEntity
  8
1
  6
Continuous
 62
     7
100
AcDbLine
 10
6.31791338582677
 20
3.070866141732283
 30
0.0
 11
6.31791338582677
 21
2.290804751101027
 31
0.0
  0
LINE
  5
14E
330
75
100
AcDbEntity
  8
1
  6
Continuous
 62
     7
100
AcDbLine
 10
6.391732283464566
 20
2.369544908581342
 30
0.0
 11
6.549212598425196
 21
2.369544908581342
 31
0.0
  0
LINE
  5
14F
330
75
100
AcDbEntity
  8
1
  6
Continuous
 62
     7
100
AcDbLine
 10
6.31791338582677
 20
2.369544908581342
 30
0.0
 11
6.16043307086614
 21
2.369544908581342
 31
0.0
  0
INSERT
  5
150
330
75
100
AcDbEntity
  8
1
  6
Continuous
 62
     7
100
AcDbBlockReference
  2
LONGARROW
 10
6.391732283464566
 20
2.369544908581342
 30
0.0
 41
0.078740157480315
 42
0.078740157480315
  0
INSERT
  5
151
330
75
100
AcDbEntity
  8
1
  6
Continuous
 62
     7
100
AcDbBlockReference
  2
LONGARROW
 10
6.31791338582677
 20
2.369544908581342
 30
0.0
 41
0.078740157480315
 42
0.078740157480315
 50
180.0
  0
TEXT
  5
152
330
75
100
AcDbEntity
  8
1
  6
Continuous
 62
     7
100
AcDbText
 10
6.523462383042632
 20
4.087106299212598
 30
0.0
 40
0.125
  1
0.138"
  7
ARIAL
 72
     1
 11
6.77295078686255
 21
4.149606299212598
 31
0.0
100
AcDbText
 73
     2
  0
LINE
  5
153
330
75
100
AcDbEntity
  8
1
  6
Continuous
 62
     7
100
AcDbLine
 10
6.141732283464564
 20
3.228346456692912
 30
0.0
 11
6.141732283464564
 21
4.228346456692912
 31
0.0
  0
LINE
  5
154
330
75
100
AcDbEntity
  8
1
  6
Continuous
 62
     7
100
AcDbLine
 10
6.279527559055117
 20
3.228346456692912
 30
0.0
 11
6.279527559055117
 21
4.228346456692912
 31
0.0
  0
LINE
  5
155
330
75
100
AcDbEntity
  8
1
  6
Continuous
 62
     7
100
AcDbLine
 10
6.141732283464564
 20
4.149606299212598
 30
0.0
 11
5.984251968503935
 21
4.149606299212598
 31
0.0
  0
LINE
  5
156
330
75
100
AcDbEntity
  8
1
  6
Continuous
 62
     7
100
AcDbLine
 10
6.279527559055117
 20
4.149606299212598
 30
0.0
 11
6.437007874015747
 21
4.149606299212598
 31
0.0
  0
INSERT
  5
157
330
75
100
AcDbEntity
  8
1
  6
Continuous
 62
     7
100
AcDbBlockReference
  2
LONGARROW
 10
6.141732283464564
 20
4.149606299212598
 30
0.0
 41
0.078740157480315
 42
0.078740157480315
 50
180.0
  0
INSERT
  5
158
330
75
100
AcDbEntity
  8
1
  6
Continuous
 62
     7
100
AcDbBlockReference
  2
LONGARROW
 10
6.279527559055117
 20
4.149606299212598
 30
0.0
 41
0.078740157480315
 42
0.078740157480315
  0
LINE
  5
159
330
75
100
AcDbEntity
  8
1
  6
Continuous
 62
     7
100
AcDbLine
 10
6.224702879229551
 20
3.316097433002206
 30
0.0
 11
6.110952244631417
 21
3.207189936801894
 31
0.0
  0
LINE
  5
15A
330
75
100
AcDbEntity
  8
1
  6
Continuous
 62
     7
100
AcDbLine
 10
6.338453513827684
 20
3.425004929202518
 30
0.0
 11
6.281578196528617
 21
3.370551181102362
 31
0.0
  0
LINE
  5
15B
330
75
100
AcDbEntity
  8
1
  6
Continuous
 62
     7
100
AcDbLine
 10
6.281578196528617
 20
3.370551181102362
 30
0.0
 11
6.439058511489247
 21
3.370551181102362
 31
0.0
  0
INSERT
  5
15C
330
75
100
AcDbEntity
  8
1
  6
Continuous
 62
     7
100
AcDbBlockReference
  2
LONGARROW
 10
6.338453513827684
 20
3.425004929202518
 30
0.0
 41
0.078740157480315
 42
0.078740157480315
 50
43.75392989945019
  0
INSERT
  5
15D
330
75
100
AcDbEntity
  8
1
  6
Continuous
 62
     7
100
AcDbBlockReference
  2
LONGARROW
 10
6.224702879229551
 20
3.316097433002206
 30
0.0
 41
0.078740157480315
 42
0.078740157480315
 50
223.7539298994502
  0
TEXT
  5
15E
330
75
100
AcDbEntity
  8
1
  6
Continuous
 62
     7
100
AcDbText
 10
6.55237595348241
 20
3.308051181102362
 30
0.0
 40
0.125
  1
 0.157"
  7
ARIAL
 72
     1
 11
6.879456444614743
 21
3.370551181102362
 31
0.0
100
AcDbText
 73
     2
  0
ARC
  5
15F
330
75
100
AcDbEntity
  8
1
  6
Continuous
 62
     7
100
AcDbCircle
 10
5.748401574803149
 20
3.54367716535433
 30
0.0
 40
0.039
100
AcDbArc
 50
0.0
 51
90.00000000000005
  0
ARC
  5
160
330
75
100
AcDbEntity
  8
1
  6
Continuous
 62
     7
100
AcDbCircle
 10
5.748401574803149
 20
2.755535433070865
 30
0.0
 40
0.039
100
AcDbArc
 50
270.0000000000001
 51
0.0
  0
ENDSEC
  0
SECTION
  2
OBJECTS
  0
DICTIONARY
  5
C
330
0
100
AcDbDictionary
281
     1
  3
ACAD_COLOR
350
6B
  3
ACAD_GROUP
350
D
  3
ACAD_LAYOUT
350
6A
  3
ACAD_MATERIAL
350
10
  3
ACAD_MLEADERSTYLE
350
6E
  3
ACAD_MLINESTYLE
350
67
  3
ACAD_PLOTSETTINGS
350
69
  3
ACAD_PLOTSTYLENAME
350
E
  3
ACAD_SCALELIST
350
3A
  3
ACAD_TABLESTYLE
350
6C
  3
ACAD_VISUALSTYLE
350
29
  3
ACDB_RECOMPOSE_DATA
350
16F
  3
AcDbVariableDictionary
350
161
  0
DICTIONARY
  5
6B
102
{ACAD_REACTORS
330
C
102
}
330
C
100
AcDbDictionary
281
     1
  0
DICTIONARY
  5
D
102
{ACAD_REACTORS
330
C
102
}
330
C
100
AcDbDictionary
281
     1
  0
DICTIONARY
  5
6A
102
{ACAD_REACTORS
330
C
102
}
330
C
100
AcDbDictionary
281
     1
  3
Layout1
350
74
  3
Layout2
350
7C
  3
Model
350
78
  0
DICTIONARY
  5
10
102
{ACAD_REACTORS
330
C
102
}
330
C
100
AcDbDictionary
281
     1
  3
ByBlock
350
19
  3
ByLayer
350
11
  3
Global
350
21
  0
DICTIONARY
  5
6E
102
{ACAD_REACTORS
330
C
102
}
330
C
100
AcDbDictionary
281
     1
  3
Standard
350
6F
  0
DICTIONARY
  5
67
102
{ACAD_REACTORS
330
C
102
}
330
C
100
AcDbDictionary
281
     1
  3
Standard
350
68
  0
DICTIONARY
  5
69
102
{ACAD_REACTORS
330
C
102
}
330
C
100
AcDbDictionary
281
     1
  0
ACDBDICTIONARYWDFLT
  5
E
102
{ACAD_REACTORS
330
C
102
}
330
C
100
AcDbDictionary
281
     1
  3
Normal
350
F
100
AcDbDictionaryWithDefault
340
F
  0
DICTIONARY
  5
3A
102
{ACAD_REACTORS
330
C
102
}
330
C
100
AcDbDictionary
281
     1
  3
A0
350
3B
  3
A1
350
3C
  3
A2
350
3D
  3
A3
350
3E
  3
A4
350
3F
  3
A5
350
40
  3
A6
350
41
  3
A7
350
42
  3
A8
350
43
  3
A9
350
44
  3
B0
350
45
  3
B1
350
46
  3
B2
350
47
  3
B3
350
48
  3
B4
350
49
  3
B5
350
4A
  3
B6
350
4B
  3
B7
350
4C
  3
B8
350
4D
  3
B9
350
4E
  3
C0
350
4F
  3
C1
350
50
  3
C2
350
51
  3
C3
350
52
  3
C4
350
53
  3
C5
350
54
  3
C6
350
55
  3
C7
350
56
  3
C8
350
57
  3
C9
350
58
  3
D0
350
59
  3
D1
350
5A
  3
D2
350
5B
  0
DICTIONARY
  5
6C
102
{ACAD_REACTORS
330
C
102
}
330
C
100
AcDbDictionary
281
     1
  3
Standard
350
6D
  0
DICTIONARY
  5
29
102
{ACAD_REACTORS
330
C
102
}
330
C
100
AcDbDictionary
281
     1
  3
2dWireframe
350
2F
  3
3D Hidden
350
31
  3
3dWireframe
350
30
  3
Basic
350
2E
  3
Brighten
350
35
  3
ColorChange
350
39
  3
Conceptual
350
32
  3
Dim
350
34
  3
Facepattern
350
38
  3
Flat
350
2A
  3
FlatWithEdges
350
2B
  3
Gouraud
350
2C
  3
GouraudWithEdges
350
2D
  3
Linepattern
350
37
  3
Realistic
350
33
  3
Thicken
350
36
  0
XRECORD
  5
16F
102
{ACAD_REACTORS
330
C
102
}
330
C
100
AcDbXrecord
280
     1
 90
        1
330
6D
  0
DICTIONARY
  5
161
102
{ACAD_REACTORS
330
C
102
}
330
C
100
AcDbDictionary
281
     1
  3
CANNOSCALE
350
165
  3
CMLEADERSTYLE
350
163
  3
CTABLESTYLE
350
162
  3
DIMASSOC
350
16C
  3
HIDETEXT
350
16B
  3
INDEXCTL
350
16A
  3
LAYEREVAL
350
167
  3
LAYERNOTIFY
350
168
  3
LIGHTINGUNITS
350
166
  3
MSLTSCALE
350
164
  3
SORTENTS
350
169
  0
LAYOUT
  5
74
102
{ACAD_XDICTIONARY
360
174
102
}
102
{ACAD_REACTORS
330
6A
102
}
330
6A
100
AcDbPlotSettings
  1

  2

  4

  6

 40
0.0
 41
0.0
 42
0.0
 43
0.0
 44
0.0
 45
0.0
 46
0.0
 47
0.0
 48
0.0
 49
0.0
140
0.0
141
0.0
142
1.0
143
1.0
 70
   688
 72
     0
 73
     0
 74
     5
  7

 75
    16
147
1.0
148
0.0
149
0.0
100
AcDbLayout
  1
Layout1
 70
     1
 71
     1
 10
0.0
 20
0.0
 11
12.0
 21
9.0
 12
0.0
 22
0.0
 32
0.0
 14
0.0
 24
0.0
 34
0.0
 15
0.0
 25
0.0
 35
0.0
146
0.0
 13
0.0
 23
0.0
 33
0.0
 16
1.0
 26
0.0
 36
0.0
 17
0.0
 27
1.0
 37
0.0
 76
     0
330
71
  0
LAYOUT
  5
7C
102
{ACAD_XDICTIONARY
360
178
102
}
102
{ACAD_REACTORS
330
6A
102
}
330
6A
100
AcDbPlotSettings
  1

  2

  4

  6

 40
0.0
 41
0.0
 42
0.0
 43
0.0
 44
0.0
 45
0.0
 46
0.0
 47
0.0
 48
0.0
 49
0.0
140
0.0
141
0.0
142
1.0
143
1.0
 70
   688
 72
     0
 73
     0
 74
     5
  7

 75
    16
147
1.0
148
0.0
149
0.0
100
AcDbLayout
  1
Layout2
 70
     1
 71
     2
 10
0.0
 20
0.0
 11
12.0
 21
9.0
 12
0.0
 22
0.0
 32
0.0
 14
0.0
 24
0.0
 34
0.0
 15
0.0
 25
0.0
 35
0.0
146
0.0
 13
0.0
 23
0.0
 33
0.0
 16
1.0
 26
0.0
 36
0.0
 17
0.0
 27
1.0
 37
0.0
 76
     0
330
79
  0
LAYOUT
  5
78
102
{ACAD_XDICTIONARY
360
176
102
}
102
{ACAD_REACTORS
330
6A
102
}
330
6A
100
AcDbPlotSettings
  1

  2

  4

  6

 40
0.0
 41
0.0
 42
0.0
 43
0.0
 44
0.0
 45
0.0
 46
0.0
 47
0.0
 48
0.0
 49
0.0
140
0.0
141
0.0
142
1.0
143
1.0
 70
  1712
 72
     0
 73
     0
 74
     0
  7

 75
     0
147
1.0
148
0.0
149
0.0
100
AcDbLayout
  1
Model
 70
     1
 71
     0
 10
0.0
 20
0.0
 11
12.0
 21
9.0
 12
0.0
 22
0.0
 32
0.0
 14
0.0
 24
0.0
 34
0.0
 15
0.0
 25
0.0
 35
0.0
146
0.0
 13
0.0
 23
0.0
 33
0.0
 16
1.0
 26
0.0
 36
0.0
 17
0.0
 27
1.0
 37
0.0
 76
     0
330
75
  0
MATERIAL
  5
19
102
{ACAD_XDICTIONARY
360
1A
102
}
102
{ACAD_REACTORS
330
10
102
}
330
10
100
AcDbMaterial
  1
ByBlock
 72
     0
 43
0.0208333333333333
 43
0.0
 43
0.0
 43
0.0
 43
0.0
 43
0.0208333333333333
 43
0.0
 43
0.0
 43
0.0
 43
0.0
 43
1.0
 43
0.0
 43
0.0
 43
0.0
 43
0.0
 43
1.0
 77
     0
 47
0.0208333333333333
 47
0.0
 47
0.0
 47
0.0
 47
0.0
 47
0.0208333333333333
 47
0.0
 47
0.0
 47
0.0
 47
0.0
 47
1.0
 47
0.0
 47
0.0
 47
0.0
 47
0.0
 47
1.0
171
     0
 49
0.0208333333333333
 49
0.0
 49
0.0
 49
0.0
 49
0.0
 49
0.0208333333333333
 49
0.0
 49
0.0
 49
0.0
 49
0.0
 49
1.0
 49
0.0
 49
0.0
 49
0.0
 49
0.0
 49
1.0
175
     0
142
0.0208333333333333
142
0.0
142
0.0
142
0.0
142
0.0
142
0.0208333333333333
142
0.0
142
0.0
142
0.0
142
0.0
142
1.0
142
0.0
142
0.0
142
0.0
142
0.0
142
1.0
179
     0
144
0.0208333333333333
144
0.0
144
0.0
144
0.0
144
0.0
144
0.0208333333333333
144
0.0
144
0.0
144
0.0
144
0.0
144
1.0
144
0.0
144
0.0
144
0.0
144
0.0
144
1.0
147
0.0208333333333333
147
0.0
147
0.0
147
0.0
147
0.0
147
0.0208333333333333
147
0.0
147
0.0
147
0.0
147
0.0
147
1.0
147
0.0
147
0.0
147
0.0
147
0.0
147
1.0
  0
MATERIAL
  5
11
102
{ACAD_XDICTIONARY
360
12
102
}
102
{ACAD_REACTORS
330
10
102
}
330
10
100
AcDbMaterial
  1
ByLayer
 72
     0
 43
0.0208333333333333
 43
0.0
 43
0.0
 43
0.0
 43
0.0
 43
0.0208333333333333
 43
0.0
 43
0.0
 43
0.0
 43
0.0
 43
1.0
 43
0.0
 43
0.0
 43
0.0
 43
0.0
 43
1.0
 77
     0
 47
0.0208333333333333
 47
0.0
 47
0.0
 47
0.0
 47
0.0
 47
0.0208333333333333
 47
0.0
 47
0.0
 47
0.0
 47
0.0
 47
1.0
 47
0.0
 47
0.0
 47
0.0
 47
0.0
 47
1.0
171
     0
 49
0.0208333333333333
 49
0.0
 49
0.0
 49
0.0
 49
0.0
 49
0.0208333333333333
 49
0.0
 49
0.0
 49
0.0
 49
0.0
 49
1.0
 49
0.0
 49
0.0
 49
0.0
 49
0.0
 49
1.0
175
     0
142
0.0208333333333333
142
0.0
142
0.0
142
0.0
142
0.0
142
0.0208333333333333
142
0.0
142
0.0
142
0.0
142
0.0
142
1.0
142
0.0
142
0.0
142
0.0
142
0.0
142
1.0
179
     0
144
0.0208333333333333
144
0.0
144
0.0
144
0.0
144
0.0
144
0.0208333333333333
144
0.0
144
0.0
144
0.0
144
0.0
144
1.0
144
0.0
144
0.0
144
0.0
144
0.0
144
1.0
147
0.0208333333333333
147
0.0
147
0.0
147
0.0
147
0.0
147
0.0208333333333333
147
0.0
147
0.0
147
0.0
147
0.0
147
1.0
147
0.0
147
0.0
147
0.0
147
0.0
147
1.0
  0
MATERIAL
  5
21
102
{ACAD_XDICTIONARY
360
22
102
}
102
{ACAD_REACTORS
330
10
102
}
330
10
100
AcDbMaterial
  1
Global
 72
     0
 43
0.0208333333333333
 43
0.0
 43
0.0
 43
0.0
 43
0.0
 43
0.0208333333333333
 43
0.0
 43
0.0
 43
0.0
 43
0.0
 43
1.0
 43
0.0
 43
0.0
 43
0.0
 43
0.0
 43
1.0
 77
     0
 47
0.0208333333333333
 47
0.0
 47
0.0
 47
0.0
 47
0.0
 47
0.0208333333333333
 47
0.0
 47
0.0
 47
0.0
 47
0.0
 47
1.0
 47
0.0
 47
0.0
 47
0.0
 47
0.0
 47
1.0
171
     0
 49
0.0208333333333333
 49
0.0
 49
0.0
 49
0.0
 49
0.0
 49
0.0208333333333333
 49
0.0
 49
0.0
 49
0.0
 49
0.0
 49
1.0
 49
0.0
 49
0.0
 49
0.0
 49
0.0
 49
1.0
175
     0
142
0.0208333333333333
142
0.0
142
0.0
142
0.0
142
0.0
142
0.0208333333333333
142
0.0
142
0.0
142
0.0
142
0.0
142
1.0
142
0.0
142
0.0
142
0.0
142
0.0
142
1.0
179
     0
144
0.0208333333333333
144
0.0
144
0.0
144
0.0
144
0.0
144
0.0208333333333333
144
0.0
144
0.0
144
0.0
144
0.0
144
1.0
144
0.0
144
0.0
144
0.0
144
0.0
144
1.0
147
0.0208333333333333
147
0.0
147
0.0
147
0.0
147
0.0
147
0.0208333333333333
147
0.0
147
0.0
147
0.0
147
0.0
147
1.0
147
0.0
147
0.0
147
0.0
147
0.0
147
1.0
  0
MLEADERSTYLE
  5
6F
102
{ACAD_REACTORS
330
6E
102
}
330
6E
100
AcDbMLeaderStyle
170
     2
171
     1
172
     0
 90
        2
 40
0.0
 41
0.0
173
     1
 91
-1056964608
340
63
 92
       -2
290
     1
 42
0.09
291
     1
 43
0.36
  3
Standard
 44
0.18
300

342
5D
174
     1
178
     6
175
     1
176
     0
 93
-1056964608
 45
0.18
292
     0
297
     0
 46
0.18
 94
-1056964608
 47
1.0
 49
1.0
140
1.0
293
     1
141
0.0
294
     1
177
     0
142
1.0
295
     0
296
     0
143
0.125
1001
ACAD_MLEADERVER
1070
     2
  0
MLINESTYLE
  5
68
102
{ACAD_REACTORS
330
67
102
}
330
67
100
AcDbMlineStyle
  2
STANDARD
 70
     0
  3

 62
   256
 51
90.0
 52
90.0
 71
     2
 49
0.5
 62
   256
  6
BYLAYER
 49
-0.5
 62
   256
  6
BYLAYER
  0
ACDBPLACEHOLDER
  5
F
102
{ACAD_REACTORS
330
E
102
}
330
E
  0
SCALE
  5
3B
102
{ACAD_REACTORS
330
3A
102
}
330
3A
100
AcDbScale
 70
     0
300
1:1
140
1.0
141
1.0
290
     1
  0
SCALE
  5
3C
102
{ACAD_REACTORS
330
3A
102
}
330
3A
100
AcDbScale
 70
     0
300
1:2
140
1.0
141
2.0
290
     0
  0
SCALE
  5
3D
102
{ACAD_REACTORS
330
3A
102
}
330
3A
100
AcDbScale
 70
     0
300
1:4
140
1.0
141
4.0
290
     0
  0
SCALE
  5
3E
102
{ACAD_REACTORS
330
3A
102
}
330
3A
100
AcDbScale
 70
     0
300
1:5
140
1.0
141
5.0
290
     0
  0
SCALE
  5
3F
102
{ACAD_REACTORS
330
3A
102
}
330
3A
100
AcDbScale
 70
     0
300
1:8
140
1.0
141
8.0
290
     0
  0
SCALE
  5
40
102
{ACAD_REACTORS
330
3A
102
}
330
3A
100
AcDbScale
 70
     0
300
1:10
140
1.0
141
10.0
290
     0
  0
SCALE
  5
41
102
{ACAD_REACTORS
330
3A
102
}
330
3A
100
AcDbScale
 70
     0
300
1:16
140
1.0
141
16.0
290
     0
  0
SCALE
  5
42
102
{ACAD_REACTORS
330
3A
102
}
330
3A
100
AcDbScale
 70
     0
300
1:20
140
1.0
141
20.0
290
     0
  0
SCALE
  5
43
102
{ACAD_REACTORS
330
3A
102
}
330
3A
100
AcDbScale
 70
     0
300
1:30
140
1.0
141
30.0
290
     0
  0
SCALE
  5
44
102
{ACAD_REACTORS
330
3A
102
}
330
3A
100
AcDbScale
 70
     0
300
1:40
140
1.0
141
40.0
290
     0
  0
SCALE
  5
45
102
{ACAD_REACTORS
330
3A
102
}
330
3A
100
AcDbScale
 70
     0
300
1:50
140
1.0
141
50.0
290
     0
  0
SCALE
  5
46
102
{ACAD_REACTORS
330
3A
102
}
330
3A
100
AcDbScale
 70
     0
300
1:100
140
1.0
141
100.0
290
     0
  0
SCALE
  5
47
102
{ACAD_REACTORS
330
3A
102
}
330
3A
100
AcDbScale
 70
     0
300
2:1
140
2.0
141
1.0
290
     0
  0
SCALE
  5
48
102
{ACAD_REACTORS
330
3A
102
}
330
3A
100
AcDbScale
 70
     0
300
4:1
140
4.0
141
1.0
290
     0
  0
SCALE
  5
49
102
{ACAD_REACTORS
330
3A
102
}
330
3A
100
AcDbScale
 70
     0
300
8:1
140
8.0
141
1.0
290
     0
  0
SCALE
  5
4A
102
{ACAD_REACTORS
330
3A
102
}
330
3A
100
AcDbScale
 70
     0
300
10:1
140
10.0
141
1.0
290
     0
  0
SCALE
  5
4B
102
{ACAD_REACTORS
330
3A
102
}
330
3A
100
AcDbScale
 70
     0
300
100:1
140
100.0
141
1.0
290
     0
  0
SCALE
  5
4C
102
{ACAD_REACTORS
330
3A
102
}
330
3A
100
AcDbScale
 70
     0
300
1/128" = 1'-0"
140
0.0078125
141
12.0
290
     0
  0
SCALE
  5
4D
102
{ACAD_REACTORS
330
3A
102
}
330
3A
100
AcDbScale
 70
     0
300
1/64" = 1'-0"
140
0.015625
141
12.0
290
     0
  0
SCALE
  5
4E
102
{ACAD_REACTORS
330
3A
102
}
330
3A
100
AcDbScale
 70
     0
300
1/32" = 1'-0"
140
0.03125
141
12.0
290
     0
  0
SCALE
  5
4F
102
{ACAD_REACTORS
330
3A
102
}
330
3A
100
AcDbScale
 70
     0
300
1/16" = 1'-0"
140
0.0625
141
12.0
290
     0
  0
SCALE
  5
50
102
{ACAD_REACTORS
330
3A
102
}
330
3A
100
AcDbScale
 70
     0
300
3/32" = 1'-0"
140
0.09375
141
12.0
290
     0
  0
SCALE
  5
51
102
{ACAD_REACTORS
330
3A
102
}
330
3A
100
AcDbScale
 70
     0
300
1/8" = 1'-0"
140
0.125
141
12.0
290
     0
  0
SCALE
  5
52
102
{ACAD_REACTORS
330
3A
102
}
330
3A
100
AcDbScale
 70
     0
300
3/16" = 1'-0"
140
0.1875
141
12.0
290
     0
  0
SCALE
  5
53
102
{ACAD_REACTORS
330
3A
102
}
330
3A
100
AcDbScale
 70
     0
300
1/4" = 1'-0"
140
0.25
141
12.0
290
     0
  0
SCALE
  5
54
102
{ACAD_REACTORS
330
3A
102
}
330
3A
100
AcDbScale
 70
     0
300
3/8" = 1'-0"
140
0.375
141
12.0
290
     0
  0
SCALE
  5
55
102
{ACAD_REACTORS
330
3A
102
}
330
3A
100
AcDbScale
 70
     0
300
1/2" = 1'-0"
140
0.5
141
12.0
290
     0
  0
SCALE
  5
56
102
{ACAD_REACTORS
330
3A
102
}
330
3A
100
AcDbScale
 70
     0
300
3/4" = 1'-0"
140
0.75
141
12.0
290
     0
  0
SCALE
  5
57
102
{ACAD_REACTORS
330
3A
102
}
330
3A
100
AcDbScale
 70
     0
300
1" = 1'-0"
140
1.0
141
12.0
290
     0
  0
SCALE
  5
58
102
{ACAD_REACTORS
330
3A
102
}
330
3A
100
AcDbScale
 70
     0
300
1-1/2" = 1'-0"
140
1.5
141
12.0
290
     0
  0
SCALE
  5
59
102
{ACAD_REACTORS
330
3A
102
}
330
3A
100
AcDbScale
 70
     0
300
3" = 1'-0"
140
3.0
141
12.0
290
     0
  0
SCALE
  5
5A
102
{ACAD_REACTORS
330
3A
102
}
330
3A
100
AcDbScale
 70
     0
300
6" = 1'-0"
140
6.0
141
12.0
290
     0
  0
SCALE
  5
5B
102
{ACAD_REACTORS
330
3A
102
}
330
3A
100
AcDbScale
 70
     0
300
1'-0" = 1'-0"
140
12.0
141
12.0
290
     0
  0
TABLESTYLE
  5
6D
102
{ACAD_XDICTIONARY
360
16D
102
}
102
{ACAD_REACTORS
330
6C
102
}
330
6C
100
AcDbTableStyle
  3
Standard
 70
     0
 71
     0
 40
0.06
 41
0.06
280
     0
281
     0
  7
Standard
140
0.18
170
     2
 62
     0
 63
     7
283
     0
274
    -2
284
     1
 64
     0
275
    -2
285
     1
 65
     0
276
    -2
286
     1
 66
     0
277
    -2
287
     1
 67
     0
278
    -2
288
     1
 68
     0
279
    -2
289
     1
 69
     0
  7
Standard
140
0.25
170
     5
 62
     0
 63
     7
283
     0
274
    -2
284
     1
 64
     0
275
    -2
285
     1
 65
     0
276
    -2
286
     1
 66
     0
277
    -2
287
     1
 67
     0
278
    -2
288
     1
 68
     0
279
    -2
289
     1
 69
     0
  7
Standard
140
0.18
170
     5
 62
     0
 63
     7
283
     0
274
    -2
284
     1
 64
     0
275
    -2
285
     1
 65
     0
276
    -2
286
     1
 66
     0
277
    -2
287
     1
 67
     0
278
    -2
288
     1
 68
     0
279
    -2
289
     1
 69
     0
  0
VISUALSTYLE
  5
2F
102
{ACAD_REACTORS
330
29
102
}
330
29
100
AcDbVisualStyle
  2
2dWireframe
 70
     4
 71
     0
 72
     2
 73
     0
 90
        0
 40
-0.6
 41
-30.0
 62
     5
 63
     7
 74
     1
 91
        4
 64
     7
 65
   257
 75
     1
175
     1
 42
1.0
 92
        0
 66
   257
 43
1.0
 76
     1
 77
     6
 78
     2
 67
     7
 79
     5
170
     0
171
     0
290
     0
174
     0
 93
        1
 44
0.0
173
     0
291
     0
 45
0.0
1001
ACAD
1000
AcDbSavedByObjectVersion
1070
     0
  0
VISUALSTYLE
  5
31
102
{ACAD_REACTORS
330
29
102
}
330
29
100
AcDbVisualStyle
  2
3D Hidden
 70
     6
 71
     1
 72
     2
 73
     2
 90
        0
 40
-0.6
 41
-30.0
 62
     5
 63
     7
 74
     2
 91
        2
 64
     7
 65
   257
 75
     2
175
     1
 42
40.0
 92
        0
 66
   257
 43
1.0
 76
     1
 77
     6
 78
     2
 67
     7
 79
     3
170
     0
171
     0
290
     0
174
     0
 93
        1
 44
0.0
173
     0
291
     0
 45
0.0
1001
ACAD
1000
AcDbSavedByObjectVersion
1070
     0
  0
VISUALSTYLE
  5
30
102
{ACAD_REACTORS
330
29
102
}
330
29
100
AcDbVisualStyle
  2
3dWireframe
 70
     5
 71
     0
 72
     2
 73
     0
 90
        0
 40
-0.6
 41
-30.0
 62
     5
 63
     7
 74
     1
 91
        4
 64
     7
 65
   257
 75
     1
175
     1
 42
1.0
 92
        0
 66
   257
 43
1.0
 76
     1
 77
     6
 78
     2
 67
     7
 79
     5
170
     0
171
     0
290
     0
174
     0
 93
        1
 44
0.0
173
     0
291
     0
 45
0.0
1001
ACAD
1000
AcDbSavedByObjectVersion
1070
     0
  0
VISUALSTYLE
  5
2E
102
{ACAD_REACTORS
330
29
102
}
330
29
100
AcDbVisualStyle
  2
Basic
 70
     7
 71
     1
 72
     0
 73
     1
 90
        0
 40
-0.6
 41
-30.0
 62
     5
 63
     7
 74
     0
 91
        4
 64
     7
 65
   257
 75
     1
175
     1
 42
1.0
 92
        8
 66
     7
 43
1.0
 76
     1
 77
     6
 78
     2
 67
     7
 79
     5
170
     0
171
     0
290
     0
174
     0
 93
        1
 44
0.0
173
     0
291
     1
 45
0.0
1001
ACAD
1000
AcDbSavedByObjectVersion
1070
     0
  0
VISUALSTYLE
  5
35
102
{ACAD_REACTORS
330
29
102
}
330
29
100
AcDbVisualStyle
  2
Brighten
 70
    12
 71
     2
 72
     2
 73
     0
 90
        0
 40
-0.6
 41
-30.0
 62
     5
 63
     7
 74
     1
 91
        4
 64
     7
 65
   257
 75
     1
175
     1
 42
1.0
 92
        8
 66
     7
 43
1.0
 76
     1
 77
     6
 78
     2
 67
     7
 79
     5
170
     0
171
     0
290
     0
174
     0
 93
        1
 44
50.0
173
     0
291
     1
 45
0.0
1001
ACAD
1000
AcDbSavedByObjectVersion
1070
     0
  0
VISUALSTYLE
  5
39
102
{ACAD_REACTORS
330
29
102
}
330
29
100
AcDbVisualStyle
  2
ColorChange
 70
    16
 71
     2
 72
     2
 73
     3
 90
        0
 40
-0.6
 41
-30.0
 62
     5
 63
     8
 74
     1
 91
        4
 64
     7
 65
   257
 75
     1
175
     1
 42
1.0
 92
        8
 66
     8
 43
1.0
 76
     1
 77
     6
 78
     2
 67
     7
 79
     5
170
     0
171
     0
290
     0
174
     0
 93
        1
 44
0.0
173
     0
291
     1
 45
0.0
1001
ACAD
1000
AcDbSavedByObjectVersion
1070
     0
  0
VISUALSTYLE
  5
32
102
{ACAD_REACTORS
330
29
102
}
330
29
100
AcDbVisualStyle
  2
Conceptual
 70
     9
 71
     3
 72
     2
 73
     0
 90
        0
 40
-0.6
 41
-30.0
 62
     5
 63
     7
 74
     2
 91
        2
 64
     7
 65
   257
 75
     1
175
     1
 42
40.0
 92
        8
 66
     7
 43
1.0
 76
     1
 77
     6
 78
     2
 67
     7
 79
     3
170
     0
171
     0
290
     0
174
     0
 93
        1
 44
0.0
173
     0
291
     0
 45
0.0
1001
ACAD
1000
AcDbSavedByObjectVersion
1070
     0
  0
VISUALSTYLE
  5
34
102
{ACAD_REACTORS
330
29
102
}
330
29
100
AcDbVisualStyle
  2
Dim
 70
    11
 71
     2
 72
     2
 73
     0
 90
        0
 40
-0.6
 41
-30.0
 62
     5
 63
     7
 74
     1
 91
        4
 64
     7
 65
   257
 75
     1
175
     1
 42
1.0
 92
        8
 66
     7
 43
1.0
 76
     1
 77
     6
 78
     2
 67
     7
 79
     5
170
     0
171
     0
290
     0
174
     0
 93
        1
 44
-50.0
173
     0
291
     1
 45
0.0
1001
ACAD
1000
AcDbSavedByObjectVersion
1070
     0
  0
VISUALSTYLE
  5
38
102
{ACAD_REACTORS
330
29
102
}
330
29
100
AcDbVisualStyle
  2
Facepattern
 70
    15
 71
     2
 72
     2
 73
     0
 90
        0
 40
-0.6
 41
-30.0
 62
     5
 63
     7
 74
     1
 91
        4
 64
     7
 65
   257
 75
     1
175
     1
 42
1.0
 92
        8
 66
     7
 43
1.0
 76
     1
 77
     6
 78
     2
 67
     7
 79
     5
170
     0
171
     0
290
     0
174
     0
 93
        1
 44
0.0
173
     0
291
     1
 45
0.0
1001
ACAD
1000
AcDbSavedByObjectVersion
1070
     0
  0
VISUALSTYLE
  5
2A
102
{ACAD_REACTORS
330
29
102
}
330
29
100
AcDbVisualStyle
  2
Flat
 70
     0
 71
     2
 72
     1
 73
     1
 90
        2
 40
-0.6
 41
30.0
 62
     5
 63
     7
 74
     0
 91
        4
 64
     7
 65
   257
 75
     1
175
     1
 42
1.0
 92
        8
 66
     7
 43
1.0
 76
     1
 77
     6
 78
     2
 67
     7
 79
     5
170
     0
171
     0
290
     0
174
     0
 93
       13
 44
0.0
173
     0
291
     1
 45
0.0
1001
ACAD
1000
AcDbSavedByObjectVersion
1070
     0
  0
VISUALSTYLE
  5
2B
102
{ACAD_REACTORS
330
29
102
}
330
29
100
AcDbVisualStyle
  2
FlatWithEdges
 70
     1
 71
     2
 72
     1
 73
     1
 90
        2
 40
-0.6
 41
30.0
 62
     5
 63
     7
 74
     1
 91
        4
 64
     7
 65
   257
 75
     1
175
     1
 42
1.0
 92
        0
 66
   257
 43
1.0
 76
     1
 77
     6
 78
     2
 67
     7
 79
     5
170
     0
171
     0
290
     0
174
     0
 93
       13
 44
0.0
173
     0
291
     1
 45
0.0
1001
ACAD
1000
AcDbSavedByObjectVersion
1070
     0
  0
VISUALSTYLE
  5
2C
102
{ACAD_REACTORS
330
29
102
}
330
29
100
AcDbVisualStyle
  2
Gouraud
 70
     2
 71
     2
 72
     2
 73
     1
 90
        2
 40
-0.6
 41
30.0
 62
     5
 63
     7
 74
     0
 91
        4
 64
     7
 65
   257
 75
     1
175
     1
 42
1.0
 92
        0
 66
     7
 43
1.0
 76
     1
 77
     6
 78
     2
 67
     7
 79
     5
170
     0
171
     0
290
     0
174
     0
 93
       13
 44
0.0
173
     0
291
     1
 45
0.0
1001
ACAD
1000
AcDbSavedByObjectVersion
1070
     0
  0
VISUALSTYLE
  5
2D
102
{ACAD_REACTORS
330
29
102
}
330
29
100
AcDbVisualStyle
  2
GouraudWithEdges
 70
     3
 71
     2
 72
     2
 73
     1
 90
        2
 40
-0.6
 41
30.0
 62
     5
 63
     7
 74
     1
 91
        4
 64
     7
 65
   257
 75
     1
175
     1
 42
1.0
 92
        0
 66
   257
 43
1.0
 76
     1
 77
     6
 78
     2
 67
     7
 79
     5
170
     0
171
     0
290
     0
174
     0
 93
       13
 44
0.0
173
     0
291
     1
 45
0.0
1001
ACAD
1000
AcDbSavedByObjectVersion
1070
     0
  0
VISUALSTYLE
  5
37
102
{ACAD_REACTORS
330
29
102
}
330
29
100
AcDbVisualStyle
  2
Linepattern
 70
    14
 71
     2
 72
     2
 73
     0
 90
        0
 40
-0.6
 41
-30.0
 62
     5
 63
     7
 74
     1
 91
        4
 64
     7
 65
   257
 75
     7
175
     7
 42
1.0
 92
        8
 66
     7
 43
1.0
 76
     1
 77
     6
 78
     2
 67
     7
 79
     5
170
     0
171
     0
290
     0
174
     0
 93
        1
 44
0.0
173
     0
291
     1
 45
0.0
1001
ACAD
1000
AcDbSavedByObjectVersion
1070
     0
  0
VISUALSTYLE
  5
33
102
{ACAD_REACTORS
330
29
102
}
330
29
100
AcDbVisualStyle
  2
Realistic
 70
     8
 71
     2
 72
     2
 73
     0
 90
        0
 40
-0.6
 41
-30.0
 62
     5
 63
     7
 74
     1
 91
        0
 64
     7
 65
   257
 75
     1
175
     1
 42
1.0
 92
        8
 66
     8
 43
1.0
 76
     1
 77
     6
 78
     2
 67
     7
 79
     5
170
     0
171
     0
290
     0
174
     0
 93
       13
 44
0.0
173
     0
291
     0
 45
0.0
1001
ACAD
1000
AcDbSavedByObjectVersion
1070
     0
  0
VISUALSTYLE
  5
36
102
{ACAD_REACTORS
330
29
102
}
330
29
100
AcDbVisualStyle
  2
Thicken
 70
    13
 71
     2
 72
     2
 73
     0
 90
        0
 40
-0.6
 41
-30.0
 62
     5
 63
     7
 74
     1
 91
        4
 64
     7
 65
   257
 75
     1
175
     1
 42
1.0
 92
       12
 66
     7
 43
1.0
 76
     1
 77
     6
 78
     2
 67
     7
 79
     5
170
     0
171
     0
290
     0
174
     0
 93
        1
 44
0.0
173
     0
291
     1
 45
0.0
1001
ACAD
1000
AcDbSavedByObjectVersion
1070
     0
  0
DICTIONARYVAR
  5
165
102
{ACAD_REACTORS
330
161
102
}
330
161
100
DictionaryVariables
280
     0
  1
1:1
  0
DICTIONARYVAR
  5
163
102
{ACAD_REACTORS
330
161
102
}
330
161
100
DictionaryVariables
280
     0
  1
STANDARD
  0
DICTIONARYVAR
  5
162
102
{ACAD_REACTORS
330
161
102
}
330
161
100
DictionaryVariables
280
     0
  1
STANDARD
  0
DICTIONARYVAR
  5
16C
102
{ACAD_REACTORS
330
161
102
}
330
161
100
DictionaryVariables
280
     0
  1
2
  0
DICTIONARYVAR
  5
16B
102
{ACAD_REACTORS
330
161
102
}
330
161
100
DictionaryVariables
280
     0
  1
1
  0
DICTIONARYVAR
  5
16A
102
{ACAD_REACTORS
330
161
102
}
330
161
100
DictionaryVariables
280
     0
  1
0
  0
DICTIONARYVAR
  5
167
102
{ACAD_REACTORS
330
161
102
}
330
161
100
DictionaryVariables
280
     0
  1
0
  0
DICTIONARYVAR
  5
168
102
{ACAD_REACTORS
330
161
102
}
330
161
100
DictionaryVariables
280
     0
  1
0
  0
DICTIONARYVAR
  5
166
102
{ACAD_REACTORS
330
161
102
}
330
161
100
DictionaryVariables
280
     0
  1
2
  0
DICTIONARYVAR
  5
164
102
{ACAD_REACTORS
330
161
102
}
330
161
100
DictionaryVariables
280
     0
  1
1
  0
DICTIONARYVAR
  5
169
102
{ACAD_REACTORS
330
161
102
}
330
161
100
DictionaryVariables
280
     0
  1
127
  0
DICTIONARY
  5
174
330
74
100
AcDbDictionary
280
     1
281
     1
  3
ACAD_XREC_ROUNDTRIP
360
175
  0
DICTIONARY
  5
178
330
7C
100
AcDbDictionary
280
     1
281
     1
  3
ACAD_XREC_ROUNDTRIP
360
179
  0
DICTIONARY
  5
176
330
78
100
AcDbDictionary
280
     1
281
     1
  3
ACAD_XREC_ROUNDTRIP
360
177
  0
DICTIONARY
  5
1A
330
19
100
AcDbDictionary
280
     1
281
     1
  3
ACAD_XREC_ROUNDTRIP
360
171
  3
BUMPTILE
360
1C
  3
DIFFUSETILE
360
1B
  3
OPACITYTILE
360
1F
  3
REFLECTIONTILE
360
1E
  3
REFRACTIONTILE
360
20
  3
SPECULARTILE
360
1D
  0
DICTIONARY
  5
12
330
11
100
AcDbDictionary
280
     1
281
     1
  3
ACAD_XREC_ROUNDTRIP
360
170
  3
BUMPTILE
360
14
  3
DIFFUSETILE
360
13
  3
OPACITYTILE
360
17
  3
REFLECTIONTILE
360
16
  3
REFRACTIONTILE
360
18
  3
SPECULARTILE
360
15
  0
DICTIONARY
  5
22
330
21
100
AcDbDictionary
280
     1
281
     1
  3
ACAD_XREC_ROUNDTRIP
360
172
  3
BUMPTILE
360
24
  3
DIFFUSETILE
360
23
  3
OPACITYTILE
360
27
  3
REFLECTIONTILE
360
26
  3
REFRACTIONTILE
360
28
  3
SPECULARTILE
360
25
  0
DICTIONARY
  5
16D
330
6D
100
AcDbDictionary
280
     1
281
     1
  3
ACAD_ROUNDTRIP_2008_TABLESTYLE_CELLSTYLEMAP
360
16E
  3
ACAD_XREC_ROUNDTRIP
360
173
  0
XRECORD
  5
175
102
{ACAD_REACTORS
330
174
102
}
330
174
100
AcDbXrecord
280
     1
102
SHADEPLOT
 70
     0
102
SHADEPLOTRESLEVEL
 70
     2
102
SHADEPLOTCUSTOMDPI
 70
   300
  0
XRECORD
  5
179
102
{ACAD_REACTORS
330
178
102
}
330
178
100
AcDbXrecord
280
     1
102
SHADEPLOT
 70
     0
102
SHADEPLOTRESLEVEL
 70
     2
102
SHADEPLOTCUSTOMDPI
 70
   300
  0
XRECORD
  5
177
102
{ACAD_REACTORS
330
176
102
}
330
176
100
AcDbXrecord
280
     1
102
SHADEPLOT
 70
     0
102
SHADEPLOTRESLEVEL
 70
     2
102
SHADEPLOTCUSTOMDPI
 70
   300
  0
XRECORD
  5
171
102
{ACAD_REACTORS
330
1A
102
}
330
1A
100
AcDbXrecord
280
     1
102
MATERIAL
148
0.0
149
0.0
149
0.0
 93
        0
 94
      127
282
     0
 72
     0
 77
     0
171
     0
175
     0
179
     0
273
     0
  0
XRECORD
  5
1C
102
{ACAD_REACTORS
330
1A
102
}
330
1A
100
AcDbXrecord
280
     1
270
     1
271
     1
  0
XRECORD
  5
1B
102
{ACAD_REACTORS
330
1A
102
}
330
1A
100
AcDbXrecord
280
     1
270
     1
271
     1
  0
XRECORD
  5
1F
102
{ACAD_REACTORS
330
1A
102
}
330
1A
100
AcDbXrecord
280
     1
270
     1
271
     1
  0
XRECORD
  5
1E
102
{ACAD_REACTORS
330
1A
102
}
330
1A
100
AcDbXrecord
280
     1
270
     1
271
     1
  0
XRECORD
  5
20
102
{ACAD_REACTORS
330
1A
102
}
330
1A
100
AcDbXrecord
280
     1
270
     1
271
     1
  0
XRECORD
  5
1D
102
{ACAD_REACTORS
330
1A
102
}
330
1A
100
AcDbXrecord
280
     1
270
     1
271
     1
  0
XRECORD
  5
170
102
{ACAD_REACTORS
330
12
102
}
330
12
100
AcDbXrecord
280
     1
102
MATERIAL
148
0.0
149
0.0
149
0.0
 93
        0
 94
      127
282
     0
 72
     0
 77
     0
171
     0
175
     0
179
     0
273
     0
  0
XRECORD
  5
14
102
{ACAD_REACTORS
330
12
102
}
330
12
100
AcDbXrecord
280
     1
270
     1
271
     1
  0
XRECORD
  5
13
102
{ACAD_REACTORS
330
12
102
}
330
12
100
AcDbXrecord
280
     1
270
     1
271
     1
  0
XRECORD
  5
17
102
{ACAD_REACTORS
330
12
102
}
330
12
100
AcDbXrecord
280
     1
270
     1
271
     1
  0
XRECORD
  5
16
102
{ACAD_REACTORS
330
12
102
}
330
12
100
AcDbXrecord
280
     1
270
     1
271
     1
  0
XRECORD
  5
18
102
{ACAD_REACTORS
330
12
102
}
330
12
100
AcDbXrecord
280
     1
270
     1
271
     1
  0
XRECORD
  5
15
102
{ACAD_REACTORS
330
12
102
}
330
12
100
AcDbXrecord
280
     1
270
     1
271
     1
  0
XRECORD
  5
172
102
{ACAD_REACTORS
330
22
102
}
330
22
100
AcDbXrecord
280
     1
102
MATERIAL
148
0.0
149
0.0
149
0.0
 93
        0
 94
      127
282
     0
 72
     0
 77
     0
171
     0
175
     0
179
     0
273
     0
  0
XRECORD
  5
24
102
{ACAD_REACTORS
330
22
102
}
330
22
100
AcDbXrecord
280
     1
270
     1
271
     1
  0
XRECORD
  5
23
102
{ACAD_REACTORS
330
22
102
}
330
22
100
AcDbXrecord
280
     1
270
     1
271
     1
  0
XRECORD
  5
27
102
{ACAD_REACTORS
330
22
102
}
330
22
100
AcDbXrecord
280
     1
270
     1
271
     1
  0
XRECORD
  5
26
102
{ACAD_REACTORS
330
22
102
}
330
22
100
AcDbXrecord
280
     1
270
     1
271
     1
  0
XRECORD
  5
28
102
{ACAD_REACTORS
330
22
102
}
330
22
100
AcDbXrecord
280
     1
270
     1
271
     1
  0
XRECORD
  5
25
102
{ACAD_REACTORS
330
22
102
}
330
22
100
AcDbXrecord
280
     1
270
     1
271
     1
  0
CELLSTYLEMAP
  5
16E
102
{ACAD_REACTORS
330
16D
102
}
330
16D
100
AcDbCellStyleMap
 90
        3
300
CELLSTYLE
  1
TABLEFORMAT_BEGIN
 90
        5
170
     1
 91
        0
 92
    32768
 62
   257
 93
        1
300
CONTENTFORMAT
  1
CONTENTFORMAT_BEGIN
 90
        0
 91
        0
 92
      512
 93
        0
300

 40
0.0
140
1.0
 94
        5
 62
     0
340
5D
144
0.25
309
CONTENTFORMAT_END
171
     0
 94
        0
309
TABLEFORMAT_END
  1
CELLSTYLE_BEGIN
 90
        1
 91
        1
300
_TITLE
309
CELLSTYLE_END
300
CELLSTYLE
  1
TABLEFORMAT_BEGIN
 90
        5
170
     1
 91
        0
 92
        0
 62
   257
 93
        1
300
CONTENTFORMAT
  1
CONTENTFORMAT_BEGIN
 90
        0
 91
        0
 92
      512
 93
        0
300

 40
0.0
140
1.0
 94
        5
 62
     0
340
5D
144
0.18
309
CONTENTFORMAT_END
171
     0
 94
        0
309
TABLEFORMAT_END
  1
CELLSTYLE_BEGIN
 90
        2
 91
        1
300
_HEADER
309
CELLSTYLE_END
300
CELLSTYLE
  1
TABLEFORMAT_BEGIN
 90
        5
170
     1
 91
        0
 92
        0
 62
   257
 93
        1
300
CONTENTFORMAT
  1
CONTENTFORMAT_BEGIN
 90
        0
 91
        0
 92
      512
 93
        0
300

 40
0.0
140
1.0
 94
        2
 62
     0
340
5D
144
0.18
309
CONTENTFORMAT_END
171
     0
 94
        0
309
TABLEFORMAT_END
  1
CELLSTYLE_BEGIN
 90
        3
 91
        2
300
_DATA
309
CELLSTYLE_END
  0
XRECORD
  5
173
102
{ACAD_REACTORS
330
16D
102
}
330
16D
100
AcDbXrecord
280
     1
102
ACAD_ROUNDTRIP_PRE2007_TABLESTYLE
 90
      512
 91
        0
  1

 92
      512
 93
        0
  2

 94
      512
 95
        0
  3

  0
ENDSEC
  0
EOF
